<?xml version="1.0" encoding="UTF-8" standalone="no"?>
<svg
   xmlns:dc="http://purl.org/dc/elements/1.1/"
   xmlns:cc="http://creativecommons.org/ns#"
   xmlns:rdf="http://www.w3.org/1999/02/22-rdf-syntax-ns#"
   xmlns:svg="http://www.w3.org/2000/svg"
   xmlns="http://www.w3.org/2000/svg"
   id="svg52"
   xml:space="preserve"
   viewBox="0 0 1024 768"
   y="0px"
   x="0px"
   version="1.1"><metadata
     id="metadata58"><rdf:RDF><cc:Work
         rdf:about=""><dc:format>image/svg+xml</dc:format><dc:type
           rdf:resource="http://purl.org/dc/dcmitype/StillImage" /></cc:Work></rdf:RDF></metadata><defs
     id="defs56" /><g
     style="fill:#1a1b25"
     transform="translate(-109.9,-10.235)"
     id="logo-group"><path
       stroke-miterlimit="2"
       d="m 501.25,473.27 3.7702,11.696 h 1.376 l 4.9811,-13.76 h -1.321 l -4.3206,11.916 -3.8253,-11.916 h -1.321 l -3.8253,11.916 -4.3206,-11.916 h -1.321 l 4.9811,13.76 h 1.376 z"
       style="font-variant-ligatures:none;stroke:#1a1b25;stroke-width:1.97800004;stroke-miterlimit:2"
       id="path55435" /><path
       stroke-miterlimit="2"
       d="m 529.25,467.63 c 0.55039,0 0.9632,-0.4128 0.9632,-0.9632 0,-0.5504 -0.41281,-0.9632 -0.9632,-0.9632 -0.5504,0 -0.96321,0.4128 -0.96321,0.9632 0,0.5504 0.41281,0.9632 0.96321,0.9632 z m -0.60545,3.5776 v 13.76 h 1.2384 v -13.76 z"
       style="font-variant-ligatures:none;stroke:#1a1b25;stroke-width:1.97800004;stroke-miterlimit:2"
       id="path55437" /><path
       stroke-miterlimit="2"
       d="m 552.84,483.95 c -1.5136,0 -3.3299,-0.8256 -4.5408,-1.9539 l -0.82559,0.8256 c 1.321,1.2384 3.5226,2.2291 5.3664,2.2291 2.3392,0 4.6234,-1.431 4.6234,-3.7152 0,-4.1555 -8.0634,-3.5226 -8.0634,-6.9901 0,-1.431 1.5686,-2.1741 2.9446,-2.1741 1.5686,0 2.807,0.63296 3.7427,1.5136 l 0.8256,-0.8256 c -1.0458,-0.99072 -2.6144,-1.7888 -4.5683,-1.7888 -1.7888,0 -4.183,1.0458 -4.183,3.2749 0,4.3757 8.0634,3.7978 8.0634,6.9901 0,1.5686 -1.5962,2.6144 -3.385,2.6144 z"
       style="font-variant-ligatures:none;stroke:#1a1b25;stroke-width:1.97800004;stroke-miterlimit:2"
       id="path55439" /><path
       stroke-miterlimit="2"
       d="m 582.1,485.11 c 2.3942,0 4.4858,-1.2109 5.7517,-3.0272 v 2.8896 h 1.2384 v -19.264 h -1.2384 v 8.3936 c -1.2659,-1.8163 -3.3574,-3.0272 -5.7517,-3.0272 -3.8803,0 -7.0176,3.1373 -7.0176,7.0176 0,3.8803 3.1373,7.0176 7.0176,7.0176 z m 0,-1.2659 c -3.2198,0 -5.7792,-2.5594 -5.7792,-5.7517 0,-3.2198 2.5594,-5.7792 5.7792,-5.7792 3.1923,0 5.7517,2.5594 5.7517,5.7792 0,3.1923 -2.5594,5.7517 -5.7517,5.7517 z"
       style="font-variant-ligatures:none;stroke:#1a1b25;stroke-width:1.97800004;stroke-miterlimit:2"
       id="path55441" /><path
       stroke-miterlimit="2"
       d="m 615.03,485.11 c 3.8528,0 6.9901,-3.1373 6.9901,-7.0176 0,-3.8803 -3.1373,-7.0176 -6.9901,-7.0176 -3.8803,0 -7.0176,3.1373 -7.0176,7.0176 0,3.8803 3.1373,7.0176 7.0176,7.0176 z m 0,-1.2384 c -3.2198,0 -5.7792,-2.5594 -5.7792,-5.7792 0,-3.1923 2.5594,-5.7517 5.7792,-5.7517 3.1923,0 5.7517,2.5594 5.7517,5.7517 0,3.2198 -2.5594,5.7792 -5.7517,5.7792 z"
       style="font-variant-ligatures:none;stroke:#1a1b25;stroke-width:1.97800004;stroke-miterlimit:2"
       id="path55443" /><path
       stroke-miterlimit="2"
       d="m 645.83,471.07 c -2.9997,0 -5.4214,2.4218 -5.4214,5.4214 v 8.48 h 1.2384 v -8.4486 c 0,-2.3392 1.8714,-4.183 4.2106,-4.183 2.3117,0 4.1555,1.8438 4.1555,4.183 v 8.45 h 1.2384 v -8.4486 c 0,-2.3392 1.8714,-4.183 4.2106,-4.183 2.3117,0 4.1555,1.8438 4.1555,4.183 v 8.45 h 1.2384 v -8.4762 c 0,-2.9997 -2.4218,-5.4214 -5.4214,-5.4214 -2.0915,0 -3.9078,1.1834 -4.7885,2.8896 -0.90816,-1.7062 -2.7245,-2.8896 -4.816,-2.8896 z"
       style="font-variant-ligatures:none;stroke:#1a1b25;stroke-width:1.97800004;stroke-miterlimit:2"
       id="path55445" /><path
       stroke-miterlimit="2"
       d="m 679.42,483.87 c 0,0.71552 0.52288,1.2384 1.2384,1.2384 h 0.1376 l -0.44033,1.4586 h 0.79809 l 0.688,-2.2842 c 0.0275,-0.11008 0.055,-0.2752 0.055,-0.4128 0,-0.71552 -0.52288,-1.2384 -1.2384,-1.2384 -0.71552,0 -1.2384,0.52288 -1.2384,1.2384 z"
       style="font-variant-ligatures:none;stroke:#1a1b25;stroke-width:1.97800004;stroke-miterlimit:2"
       id="path55447" /><path
       stroke-miterlimit="2"
       d="m 715.96,485.11 c 2.3942,0 4.4858,-1.2109 5.7517,-3.0272 v 2.8896 h 1.2384 v -6.88 c 0,-3.8803 -3.1373,-7.0176 -6.9901,-7.0176 -3.8803,0 -7.0176,3.1373 -7.0176,7.0176 0,3.8803 3.1373,7.0176 7.0176,7.0176 z m 0,-1.2384 c -3.2198,0 -5.7792,-2.5594 -5.7792,-5.7792 0,-3.1923 2.5594,-5.7517 5.7792,-5.7517 3.1923,0 5.7517,2.5594 5.7517,5.7517 0,3.2198 -2.5594,5.7792 -5.7517,5.7792 z"
       style="font-variant-ligatures:none;stroke:#1a1b25;stroke-width:1.97800004;stroke-miterlimit:2"
       id="path55449" /><path
       stroke-miterlimit="2"
       d="m 747.09,471.07 c -2.9997,0 -5.4214,2.4218 -5.4214,5.4214 v 8.48 h 1.2384 v -8.4486 c 0,-2.3392 1.8714,-4.183 4.2106,-4.183 2.3117,0 4.1555,1.8438 4.1555,4.183 v 8.45 h 1.2384 v -8.4486 c 0,-2.3392 1.8714,-4.183 4.2106,-4.183 2.3117,0 4.1555,1.8438 4.1555,4.183 v 8.45 h 1.2384 v -8.4762 c 0,-2.9997 -2.4218,-5.4214 -5.4214,-5.4214 -2.0915,0 -3.9078,1.1834 -4.7885,2.8896 -0.90817,-1.7062 -2.7245,-2.8896 -4.816,-2.8896 z"
       style="font-variant-ligatures:none;stroke:#1a1b25;stroke-width:1.97800004;stroke-miterlimit:2"
       id="path55451" /><path
       stroke-miterlimit="2"
       d="m 794.89,478.09 c 0,-3.8803 -3.1373,-7.0176 -7.0176,-7.0176 -3.8528,0 -6.9901,3.1373 -6.9901,7.0176 v 12.384 h 1.2384 v -8.3936 c 1.2659,1.8163 3.3574,3.0272 5.7517,3.0272 3.8803,0 7.0176,-3.1373 7.0176,-7.0176 z m -7.0176,-5.7517 c 3.2198,0 5.7792,2.5594 5.7792,5.7517 0,3.2198 -2.5594,5.7792 -5.7792,5.7792 -3.1923,0 -5.7517,-2.5594 -5.7517,-5.7792 0,-3.1923 2.5594,-5.7517 5.7517,-5.7517 z"
       style="font-variant-ligatures:none;stroke:#1a1b25;stroke-width:1.97800004;stroke-miterlimit:2"
       id="path55453" /><path
       stroke-miterlimit="2"
       d="m 813.84,465.71 v 19.264 h 1.2384 V 465.71 Z"
       style="font-variant-ligatures:none;stroke:#1a1b25;stroke-width:1.97800004;stroke-miterlimit:2"
       id="path55455" /><path
       stroke-miterlimit="2"
       d="m 835.36,467.63 c 0.55039,0 0.9632,-0.4128 0.9632,-0.9632 0,-0.5504 -0.41281,-0.9632 -0.9632,-0.9632 -0.5504,0 -0.96321,0.4128 -0.96321,0.9632 0,0.5504 0.41281,0.9632 0.96321,0.9632 z m -0.60544,3.5776 v 13.76 h 1.2384 v -13.76 z"
       style="font-variant-ligatures:none;stroke:#1a1b25;stroke-width:1.97800004;stroke-miterlimit:2"
       id="path55457" /><path
       stroke-miterlimit="2"
       d="m 855.71,470.66 v 0.5504 h -1.9264 v 1.1008 h 1.9264 v 12.66 h 1.2384 v -12.659 h 3.8528 v -1.1 h -3.8528 v -0.52288 c 0,-2.1466 1.7062,-3.8528 3.8528,-3.8528 v -1.2659 c -2.807,0 -5.0912,2.2842 -5.0912,5.0912 z"
       style="font-variant-ligatures:none;stroke:#1a1b25;stroke-width:1.97800004;stroke-miterlimit:2"
       id="path55459" /><path
       stroke-miterlimit="2"
       d="m 879.34,467.63 c 0.55039,0 0.96319,-0.4128 0.96319,-0.9632 0,-0.5504 -0.4128,-0.9632 -0.96319,-0.9632 -0.55041,0 -0.96321,0.4128 -0.96321,0.9632 0,0.5504 0.4128,0.9632 0.96321,0.9632 z m -0.60545,3.5776 v 13.76 h 1.2384 v -13.76 z"
       style="font-variant-ligatures:none;stroke:#1a1b25;stroke-width:1.97800004;stroke-miterlimit:2"
       id="path55461" /><path
       stroke-miterlimit="2"
       d="m 899.18,478.09 h 12.769 c 0,-3.8803 -3.1373,-7.0176 -6.9901,-7.0176 -3.8803,0 -7.0176,3.1373 -7.0176,7.0176 0,3.8803 3.1373,7.0176 7.0176,7.0176 2.697,0 5.0637,-1.5411 6.2195,-3.7978 h -1.431 c -1.0458,1.5411 -2.7795,2.5318 -4.7885,2.5318 -3.2198,0 -5.7792,-2.5594 -5.7792,-5.7517 z m 11.421,-1.1008 H 899.29 c 0.49537,-2.697 2.8346,-4.6784 5.6691,-4.6784 2.807,0 5.1462,1.9814 5.6416,4.6784 z"
       style="font-variant-ligatures:none;stroke:#1a1b25;stroke-width:1.97800004;stroke-miterlimit:2"
       id="path55463" /><path
       stroke-miterlimit="2"
       d="m 936.86,485.11 c 2.3942,0 4.4858,-1.2109 5.7517,-3.0272 v 2.8896 h 1.2384 v -19.264 h -1.2384 v 8.3936 c -1.2659,-1.8163 -3.3574,-3.0272 -5.7517,-3.0272 -3.8803,0 -7.0176,3.1373 -7.0176,7.0176 0,3.8803 3.1373,7.0176 7.0176,7.0176 z m 0,-1.2659 c -3.2198,0 -5.7792,-2.5594 -5.7792,-5.7517 0,-3.2198 2.5594,-5.7792 5.7792,-5.7792 3.1923,0 5.7517,2.5594 5.7517,5.7792 0,3.1923 -2.5594,5.7517 -5.7517,5.7517 z"
       style="font-variant-ligatures:none;stroke:#1a1b25;stroke-width:1.97800004;stroke-miterlimit:2"
       id="path55465" /><path
       stroke-miterlimit="2"
       d="m 323.27,329.13 h 4.176 c 0.648,0 1.008,-0.36 1.008,-1.008 v -23.04 c 0,-3.888 2.448,-6.264 6.192,-6.264 h 2.592 c 0.576,0 0.936,-0.36 0.936,-0.936 v -3.888 c 0,-0.648 -0.36,-1.008 -0.936,-1.008 h -2.664 c -7.272,0 -12.312,4.824 -12.312,12.6 v 22.536 c 0,0.648 0.36,1.008 1.008,1.008 z"
       style="font-variant-ligatures:none;stroke:#1a1b25;stroke-width:1.10000002;stroke-miterlimit:2"
       id="path55470" /><path
       stroke-miterlimit="2"
       d="m 357.81,329.85 c 6.48,0 11.016,-4.464 11.376,-11.16 0,-0.576 -0.36,-0.936 -0.936,-0.936 h -4.248 c -0.576,0 -0.936,0.288 -1.008,0.936 -0.216,3.168 -2.16,5.328 -5.112,5.328 -3.312,0 -5.256,-2.304 -5.256,-5.616 v -3.744 h 5.328 c 6.84,0 11.448,-4.536 11.448,-10.872 0,-6.624 -4.752,-11.448 -11.52,-11.376 -6.912,0 -11.376,4.752 -11.448,11.592 v 14.112 c 0,7.056 4.608,11.736 11.376,11.736 z m -5.184,-20.808 v -5.112 c 0,-3.456 1.872,-5.688 5.256,-5.688 3.312,0 5.328,2.232 5.328,5.688 0,3.024 -1.944,5.112 -5.256,5.112 z"
       style="font-variant-ligatures:none;stroke:#1a1b25;stroke-width:1.10000002;stroke-miterlimit:2"
       id="path55472" /><path
       stroke-miterlimit="2"
       d="m 391.62,329.85 c 6.912,0 11.232,-4.752 11.232,-11.376 v -14.472 c 0,-6.768 -4.392,-11.664 -11.232,-11.664 -6.408,0 -10.656,4.464 -11.088,10.728 0,0.576 0.36,1.008 0.936,1.008 h 4.176 c 0.648,0 0.936,-0.216 1.008,-0.864 0.216,-2.952 1.872,-4.968 4.896,-4.968 3.24,0 5.184,2.232 5.184,5.472 v 3.96 h -5.4 c -6.768,0 -11.376,4.608 -11.376,10.584 0,6.768 4.68,11.592 11.664,11.592 z m -0.072,-5.904 c -3.384,0 -5.4,-2.232 -5.4,-5.688 0,-2.808 2.016,-5.04 5.4,-5.04 h 5.184 v 5.256 c 0,3.312 -1.872,5.472 -5.184,5.472 z"
       style="font-variant-ligatures:none;stroke:#1a1b25;stroke-width:1.10000002;stroke-miterlimit:2"
       id="path55474" /><path
       stroke-miterlimit="2"
       d="m 416.5,329.13 h 4.176 c 0.648,0 1.008,-0.36 1.008,-1.008 v -48.456 c 0,-0.576 -0.36,-0.936 -1.008,-0.936 H 416.5 c -0.648,0 -1.008,0.36 -1.008,0.936 v 48.456 c 0,0.648 0.36,1.008 1.008,1.008 z"
       style="font-variant-ligatures:none;stroke:#1a1b25;stroke-width:1.10000002;stroke-miterlimit:2"
       id="path55476" /><path
       stroke-miterlimit="2"
       d="m 477.05,292.33 c -3.384,0 -6.12,1.8 -7.776,4.392 -1.656,-2.592 -4.464,-4.392 -7.776,-4.392 -6.552,0 -10.872,4.896 -10.872,11.736 v 24.048 c 0,0.648 0.36,1.008 1.008,1.008 h 4.104 c 0.648,0 1.008,-0.36 1.008,-1.008 V 303.85 c 0,-3.384 1.728,-5.616 4.752,-5.616 3.024,0 4.68,2.232 4.68,5.616 v 24.264 c 0,0.648 0.36,1.008 1.008,1.008 h 4.176 c 0.576,0 0.936,-0.36 0.936,-1.008 V 303.85 c 0,-3.384 1.728,-5.616 4.752,-5.616 3.024,0 4.68,2.232 4.68,5.616 v 24.264 c 0,0.648 0.36,1.008 1.008,1.008 h 4.176 c 0.576,0 0.936,-0.36 0.936,-1.008 v -24.05 c 0,-6.84 -4.248,-11.736 -10.8,-11.736 z"
       style="font-variant-ligatures:none;stroke:#1a1b25;stroke-width:1.10000002;stroke-miterlimit:2"
       id="path55478" /><path
       stroke-miterlimit="2"
       d="m 504.08,288.59 c 2.088,0 3.744,-1.728 3.744,-3.672 0,-2.16 -1.656,-3.744 -3.744,-3.744 -2.16,0 -3.672,1.584 -3.672,3.744 0,2.088 1.512,3.672 3.672,3.672 z m -2.088,40.536 h 4.176 c 0.648,0 1.008,-0.36 1.008,-1.008 v -34.056 c 0,-0.576 -0.36,-0.936 -1.008,-0.936 h -4.176 c -0.648,0 -1.008,0.36 -1.008,0.936 v 34.056 c 0,0.648 0.36,1.008 1.008,1.008 z"
       style="font-variant-ligatures:none;stroke:#1a1b25;stroke-width:1.10000002;stroke-miterlimit:2"
       id="path55480" /><path
       stroke-miterlimit="2"
       d="m 521.09,329.13 h 4.176 c 0.648,0 1.008,-0.36 1.008,-1.008 v -24.264 c 0,-3.384 1.872,-5.688 5.04,-5.688 3.168,0 5.04,2.304 5.04,5.688 v 24.264 c 0,0.648 0.36,1.008 1.008,1.008 h 4.176 c 0.648,0 1.008,-0.36 1.008,-1.008 v -24.05 c 0,-6.84 -4.536,-11.736 -11.232,-11.736 -6.696,0 -11.232,4.896 -11.232,11.736 v 24.048 c 0,0.648 0.36,1.008 1.008,1.008 z"
       style="font-variant-ligatures:none;stroke:#1a1b25;stroke-width:1.10000002;stroke-miterlimit:2"
       id="path55482" /><path
       stroke-miterlimit="2"
       d="m 576.62,278.73 h -4.176 c -0.648,0 -1.008,0.36 -1.008,0.936 v 15.336 c -1.44,-1.656 -3.456,-2.664 -5.976,-2.664 -6.48,0 -10.728,4.896 -10.728,11.736 v 14.112 c 0,6.84 4.536,11.736 11.448,11.736 6.84,0 11.448,-4.896 11.448,-11.736 v -38.52 c 0,-0.576 -0.36,-0.936 -1.008,-0.936 z m -5.184,39.672 c 0,3.384 -1.944,5.616 -5.256,5.616 -3.312,0 -5.328,-2.232 -5.328,-5.616 v -14.544 c 0,-3.384 2.016,-5.616 5.328,-5.616 3.312,0 5.256,2.232 5.256,5.616 z"
       style="font-variant-ligatures:none;stroke:#1a1b25;stroke-width:1.10000002;stroke-miterlimit:2"
       id="path55484" /><path
       stroke-miterlimit="2"
       d="m 601.19,329.92 c 6.696,0 11.16,-4.464 11.16,-10.296 0,-12.096 -16.632,-10.152 -16.632,-17.064 0,-2.592 1.944,-4.392 4.896,-4.392 3.096,0 4.752,2.016 4.968,4.824 0.072,0.576 0.432,0.936 1.008,0.936 h 4.248 c 0.72,0 0.936,-0.504 0.936,-1.008 -0.216,-5.616 -3.6,-10.584 -11.304,-10.584 -6.48,0 -10.872,4.32 -10.872,10.08 0,11.808 16.56,9.864 16.56,17.136 0,2.592 -1.728,4.464 -5.04,4.464 -3.744,0 -5.472,-2.016 -5.76,-5.688 -0.072,-0.72 -0.504,-0.936 -1.008,-0.936 h -4.176 c -0.792,0 -1.008,0.504 -1.008,1.08 0.216,6.336 4.536,11.448 12.024,11.448 z"
       style="font-variant-ligatures:none;stroke:#1a1b25;stroke-width:1.10000002;stroke-miterlimit:2"
       id="path55486" /><path
       stroke-miterlimit="2"
       d="m 622.26,323.58 -0.72,12.24 c 0,0.648 0.36,1.008 0.936,1.008 h 2.304 c 0.576,0 0.936,-0.288 1.008,-0.864 l 2.376,-12.24 c 0.072,-0.648 -0.288,-1.08 -0.936,-1.08 h -3.96 c -0.576,0 -1.008,0.288 -1.008,0.936 z"
       style="font-variant-ligatures:none;stroke:#1a1b25;stroke-width:1.10000002;stroke-miterlimit:2"
       id="path55488" /><path
       stroke-miterlimit="2"
       d="m 664.66,329.85 c 6.912,0 11.232,-4.752 11.232,-11.376 v -14.472 c 0,-6.768 -4.392,-11.664 -11.232,-11.664 -6.408,0 -10.656,4.464 -11.088,10.728 0,0.576 0.36,1.008 0.936,1.008 h 4.176 c 0.648,0 0.936,-0.216 1.008,-0.864 0.216,-2.952 1.872,-4.968 4.896,-4.968 3.24,0 5.184,2.232 5.184,5.472 v 3.96 h -5.4 c -6.768,0 -11.376,4.608 -11.376,10.584 0,6.768 4.68,11.592 11.664,11.592 z m -0.072,-5.904 c -3.384,0 -5.4,-2.232 -5.4,-5.688 0,-2.808 2.016,-5.04 5.4,-5.04 h 5.184 v 5.256 c 0,3.312 -1.872,5.472 -5.184,5.472 z"
       style="font-variant-ligatures:none;stroke:#1a1b25;stroke-width:1.10000002;stroke-miterlimit:2"
       id="path55490" /><path
       stroke-miterlimit="2"
       d="m 688.97,329.13 h 4.176 c 0.648,0 1.008,-0.36 1.008,-1.008 v -23.04 c 0,-3.888 2.448,-6.264 6.192,-6.264 h 2.592 c 0.576,0 0.936,-0.36 0.936,-0.936 v -3.888 c 0,-0.648 -0.36,-1.008 -0.936,-1.008 h -2.664 c -7.272,0 -12.312,4.824 -12.312,12.6 v 22.536 c 0,0.648 0.36,1.008 1.008,1.008 z"
       style="font-variant-ligatures:none;stroke:#1a1b25;stroke-width:1.10000002;stroke-miterlimit:2"
       id="path55492" /><path
       stroke-miterlimit="2"
       d="m 729.23,323.51 h -0.792 c -3.672,0 -5.544,-2.304 -5.544,-6.84 v -17.928 h 5.544 c 0.576,0 0.936,-0.36 0.936,-0.936 v -3.744 c 0,-0.576 -0.36,-0.936 -0.936,-0.936 h -5.544 v -9.288 c 0,-0.648 -0.36,-1.008 -0.936,-1.008 h -4.176 c -0.648,0 -1.008,0.36 -1.008,1.008 v 9.288 h -4.032 c -0.576,0 -0.936,0.36 -0.936,0.936 v 3.744 c 0,0.576 0.36,0.936 0.936,0.936 h 4.032 v 17.856 c 0,7.92 4.248,12.744 11.376,12.744 h 1.08 c 0.648,0 1.008,-0.36 1.008,-0.936 v -3.96 c 0,-0.576 -0.36,-0.936 -1.008,-0.936 z"
       style="font-variant-ligatures:none;stroke:#1a1b25;stroke-width:1.10000002;stroke-miterlimit:2"
       id="path55494" /><path
       stroke-miterlimit="2"
       d="m 744.64,288.59 c 2.088,0 3.744,-1.728 3.744,-3.672 0,-2.16 -1.656,-3.744 -3.744,-3.744 -2.16,0 -3.672,1.584 -3.672,3.744 0,2.088 1.512,3.672 3.672,3.672 z m -2.088,40.536 h 4.176 c 0.648,0 1.008,-0.36 1.008,-1.008 v -34.056 c 0,-0.576 -0.36,-0.936 -1.008,-0.936 h -4.176 c -0.648,0 -1.008,0.36 -1.008,0.936 v 34.056 c 0,0.648 0.36,1.008 1.008,1.008 z"
       style="font-variant-ligatures:none;stroke:#1a1b25;stroke-width:1.10000002;stroke-miterlimit:2"
       id="path55496" /><path
       stroke-miterlimit="2"
       d="m 776.7,293.13 h -7.128 v -1.872 c 0,-4.752 2.304,-6.984 6.12,-6.984 0.576,0 0.936,-0.36 0.936,-1.008 v -3.816 c 0,-0.648 -0.36,-1.008 -0.936,-1.008 -7.344,0 -12.312,4.896 -12.312,13.176 v 1.512 h -4.104 c -0.576,0 -0.936,0.36 -0.936,0.936 v 3.744 c 0,0.576 0.36,0.936 0.936,0.936 h 4.104 v 29.376 c 0,0.648 0.36,1.008 1.008,1.008 h 4.176 c 0.576,0 1.008,-0.36 1.008,-1.008 v -29.376 h 7.128 c 0.576,0 0.936,-0.36 0.936,-0.936 v -3.744 c 0,-0.576 -0.36,-0.936 -0.936,-0.936 z"
       style="font-variant-ligatures:none;stroke:#1a1b25;stroke-width:1.10000002;stroke-miterlimit:2"
       id="path55498" /><path
       stroke-miterlimit="2"
       d="m 791.59,288.59 c 2.088,0 3.744,-1.728 3.744,-3.672 0,-2.16 -1.656,-3.744 -3.744,-3.744 -2.16,0 -3.672,1.584 -3.672,3.744 0,2.088 1.512,3.672 3.672,3.672 z m -2.088,40.536 h 4.176 c 0.648,0 1.008,-0.36 1.008,-1.008 v -34.056 c 0,-0.576 -0.36,-0.936 -1.008,-0.936 h -4.176 c -0.648,0 -1.008,0.36 -1.008,0.936 v 34.056 c 0,0.648 0.36,1.008 1.008,1.008 z"
       style="font-variant-ligatures:none;stroke:#1a1b25;stroke-width:1.10000002;stroke-miterlimit:2"
       id="path55500" /><path
       stroke-miterlimit="2"
       d="m 817.91,329.92 c 6.552,0 10.944,-4.68 11.376,-11.448 0,-0.72 -0.36,-1.08 -0.936,-1.08 h -4.32 c -0.576,0 -0.864,0.288 -0.936,1.008 -0.288,3.528 -2.232,5.616 -5.256,5.616 -3.24,0 -5.184,-2.232 -5.184,-5.616 v -14.544 c 0,-3.384 1.944,-5.616 5.112,-5.616 2.952,0 4.752,1.872 5.04,5.112 0.072,0.648 0.432,0.936 1.008,0.936 h 4.248 c 0.648,0 1.008,-0.36 0.936,-0.936 -0.432,-6.552 -4.752,-11.016 -11.232,-11.016 -6.768,0 -11.304,4.896 -11.304,11.736 v 14.112 c 0,6.84 4.608,11.736 11.448,11.736 z"
       style="font-variant-ligatures:none;stroke:#1a1b25;stroke-width:1.10000002;stroke-miterlimit:2"
       id="path55502" /><path
       stroke-miterlimit="2"
       d="m 843.19,288.59 c 2.088,0 3.744,-1.728 3.744,-3.672 0,-2.16 -1.656,-3.744 -3.744,-3.744 -2.16,0 -3.672,1.584 -3.672,3.744 0,2.088 1.512,3.672 3.672,3.672 z m -2.088,40.536 h 4.176 c 0.648,0 1.008,-0.36 1.008,-1.008 v -34.056 c 0,-0.576 -0.36,-0.936 -1.008,-0.936 h -4.176 c -0.648,0 -1.008,0.36 -1.008,0.936 v 34.056 c 0,0.648 0.36,1.008 1.008,1.008 z"
       style="font-variant-ligatures:none;stroke:#1a1b25;stroke-width:1.10000002;stroke-miterlimit:2"
       id="path55504" /><path
       stroke-miterlimit="2"
       d="m 869.78,329.85 c 6.912,0 11.232,-4.752 11.232,-11.376 v -14.472 c 0,-6.768 -4.392,-11.664 -11.232,-11.664 -6.408,0 -10.656,4.464 -11.088,10.728 0,0.576 0.36,1.008 0.936,1.008 h 4.176 c 0.648,0 0.936,-0.216 1.008,-0.864 0.216,-2.952 1.872,-4.968 4.896,-4.968 3.24,0 5.184,2.232 5.184,5.472 v 3.96 h -5.4 c -6.768,0 -11.376,4.608 -11.376,10.584 0,6.768 4.68,11.592 11.664,11.592 z m -0.072,-5.904 c -3.384,0 -5.4,-2.232 -5.4,-5.688 0,-2.808 2.016,-5.04 5.4,-5.04 h 5.184 v 5.256 c 0,3.312 -1.872,5.472 -5.184,5.472 z"
       style="font-variant-ligatures:none;stroke:#1a1b25;stroke-width:1.10000002;stroke-miterlimit:2"
       id="path55506" /><path
       stroke-miterlimit="2"
       d="m 894.67,329.13 h 4.176 c 0.648,0 1.008,-0.36 1.008,-1.008 v -48.456 c 0,-0.576 -0.36,-0.936 -1.008,-0.936 h -4.176 c -0.648,0 -1.008,0.36 -1.008,0.936 v 48.456 c 0,0.648 0.36,1.008 1.008,1.008 z"
       style="font-variant-ligatures:none;stroke:#1a1b25;stroke-width:1.10000002;stroke-miterlimit:2"
       id="path55508" /><path
       stroke-miterlimit="2"
       d="m 570.14,389.44 c 2.088,0 3.744,-1.728 3.744,-3.672 0,-2.16 -1.656,-3.744 -3.744,-3.744 -2.16,0 -3.672,1.584 -3.672,3.744 0,2.088 1.512,3.672 3.672,3.672 z m -2.088,40.536 h 4.176 c 0.648,0 1.008,-0.36 1.008,-1.008 v -34.056 c 0,-0.576 -0.36,-0.936 -1.008,-0.936 h -4.176 c -0.648,0 -1.008,0.36 -1.008,0.936 v 34.056 c 0,0.648 0.36,1.008 1.008,1.008 z"
       style="font-variant-ligatures:none;stroke:#1a1b25;stroke-width:1.10000002;stroke-miterlimit:2"
       id="path55510" /><path
       stroke-miterlimit="2"
       d="m 587.15,429.98 h 4.176 c 0.648,0 1.008,-0.36 1.008,-1.008 v -24.264 c 0,-3.384 1.872,-5.688 5.04,-5.688 3.168,0 5.04,2.304 5.04,5.688 v 24.264 c 0,0.648 0.36,1.008 1.008,1.008 h 4.176 c 0.648,0 1.008,-0.36 1.008,-1.008 v -24.048 c 0,-6.84 -4.536,-11.736 -11.232,-11.736 -6.696,0 -11.232,4.896 -11.232,11.736 v 24.048 c 0,0.648 0.36,1.008 1.008,1.008 z"
       style="font-variant-ligatures:none;stroke:#1a1b25;stroke-width:1.10000002;stroke-miterlimit:2"
       id="path55512" /><path
       stroke-miterlimit="2"
       d="m 635.71,424.36 h -0.792 c -3.672,0 -5.544,-2.304 -5.544,-6.84 v -17.928 h 5.544 c 0.576,0 0.936,-0.36 0.936,-0.936 v -3.744 c 0,-0.576 -0.36,-0.936 -0.936,-0.936 h -5.544 v -9.288 c 0,-0.648 -0.36,-1.008 -0.936,-1.008 h -4.176 c -0.648,0 -1.008,0.36 -1.008,1.008 v 9.288 h -4.032 c -0.576,0 -0.936,0.36 -0.936,0.936 v 3.744 c 0,0.576 0.36,0.936 0.936,0.936 h 4.032 v 17.856 c 0,7.92 4.248,12.744 11.376,12.744 h 1.08 c 0.648,0 1.008,-0.36 1.008,-0.936 v -3.96 c 0,-0.576 -0.36,-0.936 -1.008,-0.936 z"
       style="font-variant-ligatures:none;stroke:#1a1b25;stroke-width:1.10000002;stroke-miterlimit:2"
       id="path55514" /><path
       stroke-miterlimit="2"
       d="m 657.82,430.7 c 6.48,0 11.016,-4.464 11.376,-11.16 0,-0.576 -0.36,-0.936 -0.936,-0.936 h -4.248 c -0.576,0 -0.936,0.288 -1.008,0.936 -0.216,3.168 -2.16,5.328 -5.112,5.328 -3.312,0 -5.256,-2.304 -5.256,-5.616 v -3.744 h 5.328 c 6.84,0 11.448,-4.536 11.448,-10.872 0,-6.624 -4.752,-11.448 -11.52,-11.376 -6.912,0 -11.376,4.752 -11.448,11.592 v 14.112 c 0,7.056 4.608,11.736 11.376,11.736 z m -5.184,-20.808 v -5.112 c 0,-3.456 1.872,-5.688 5.256,-5.688 3.312,0 5.328,2.232 5.328,5.688 0,3.024 -1.944,5.112 -5.256,5.112 z"
       style="font-variant-ligatures:none;stroke:#1a1b25;stroke-width:1.10000002;stroke-miterlimit:2"
       id="path55516" /><path
       stroke-miterlimit="2"
       d="m 682.35,429.98 h 4.176 c 0.648,0 1.008,-0.36 1.008,-1.008 v -48.456 c 0,-0.576 -0.36,-0.936 -1.008,-0.936 h -4.176 c -0.648,0 -1.008,0.36 -1.008,0.936 v 48.456 c 0,0.648 0.36,1.008 1.008,1.008 z"
       style="font-variant-ligatures:none;stroke:#1a1b25;stroke-width:1.10000002;stroke-miterlimit:2"
       id="path55518" /><path
       stroke-miterlimit="2"
       d="m 702.46,429.98 h 4.176 c 0.648,0 1.008,-0.36 1.008,-1.008 v -48.456 c 0,-0.576 -0.36,-0.936 -1.008,-0.936 h -4.176 c -0.648,0 -1.008,0.36 -1.008,0.936 v 48.456 c 0,0.648 0.36,1.008 1.008,1.008 z"
       style="font-variant-ligatures:none;stroke:#1a1b25;stroke-width:1.10000002;stroke-miterlimit:2"
       id="path55520" /><path
       stroke-miterlimit="2"
       d="m 724.65,389.44 c 2.088,0 3.744,-1.728 3.744,-3.672 0,-2.16 -1.656,-3.744 -3.744,-3.744 -2.16,0 -3.672,1.584 -3.672,3.744 0,2.088 1.512,3.672 3.672,3.672 z m -2.088,40.536 h 4.176 c 0.648,0 1.008,-0.36 1.008,-1.008 v -34.056 c 0,-0.576 -0.36,-0.936 -1.008,-0.936 h -4.176 c -0.648,0 -1.008,0.36 -1.008,0.936 v 34.056 c 0,0.648 0.36,1.008 1.008,1.008 z"
       style="font-variant-ligatures:none;stroke:#1a1b25;stroke-width:1.10000002;stroke-miterlimit:2"
       id="path55522" /><path
       stroke-miterlimit="2"
       d="m 751.04,393.18 c -6.912,0 -11.52,4.896 -11.52,11.736 V 417.3 c 0,6.84 4.608,11.736 11.016,11.736 2.232,0 4.248,-0.936 5.76,-2.52 v 7.128 c 0,3.528 -1.944,5.616 -5.256,5.616 -3.096,0 -5.04,-2.088 -5.256,-5.688 -0.072,-0.72 -0.432,-1.008 -1.008,-1.008 h -4.248 c -0.648,0 -1.008,0.36 -0.936,1.008 0.288,7.056 4.752,11.592 11.448,11.592 6.984,0 11.448,-4.608 11.448,-11.736 v -28.512 c 0,-6.84 -4.608,-11.736 -11.448,-11.736 z m 0,30.024 c -3.312,0 -5.328,-2.304 -5.328,-5.688 V 404.7 c 0,-3.384 2.016,-5.616 5.328,-5.616 3.312,0 5.256,2.232 5.256,5.616 v 12.816 c 0,3.384 -1.944,5.688 -5.256,5.688 z"
       style="font-variant-ligatures:none;stroke:#1a1b25;stroke-width:1.10000002;stroke-miterlimit:2"
       id="path55524" /><path
       stroke-miterlimit="2"
       d="m 785.9,430.7 c 6.48,0 11.016,-4.464 11.376,-11.16 0,-0.576 -0.36,-0.936 -0.936,-0.936 h -4.248 c -0.576,0 -0.936,0.288 -1.008,0.936 -0.216,3.168 -2.16,5.328 -5.112,5.328 -3.312,0 -5.256,-2.304 -5.256,-5.616 v -3.744 h 5.328 c 6.84,0 11.448,-4.536 11.448,-10.872 0,-6.624 -4.752,-11.448 -11.52,-11.376 -6.912,0 -11.376,4.752 -11.448,11.592 v 14.112 c 0,7.056 4.608,11.736 11.376,11.736 z m -5.184,-20.808 v -5.112 c 0,-3.456 1.872,-5.688 5.256,-5.688 3.312,0 5.328,2.232 5.328,5.688 0,3.024 -1.944,5.112 -5.256,5.112 z"
       style="font-variant-ligatures:none;stroke:#1a1b25;stroke-width:1.10000002;stroke-miterlimit:2"
       id="path55526" /><path
       stroke-miterlimit="2"
       d="m 809.85,429.98 h 4.176 c 0.648,0 1.008,-0.36 1.008,-1.008 v -24.264 c 0,-3.384 1.872,-5.688 5.04,-5.688 3.168,0 5.04,2.304 5.04,5.688 v 24.264 c 0,0.648 0.36,1.008 1.008,1.008 h 4.176 c 0.648,0 1.008,-0.36 1.008,-1.008 v -24.048 c 0,-6.84 -4.536,-11.736 -11.232,-11.736 -6.696,0 -11.232,4.896 -11.232,11.736 v 24.048 c 0,0.648 0.36,1.008 1.008,1.008 z"
       style="font-variant-ligatures:none;stroke:#1a1b25;stroke-width:1.10000002;stroke-miterlimit:2"
       id="path55528" /><path
       stroke-miterlimit="2"
       d="m 854.87,430.77 c 6.552,0 10.944,-4.68 11.376,-11.448 0,-0.72 -0.36,-1.08 -0.936,-1.08 h -4.32 c -0.576,0 -0.864,0.288 -0.936,1.008 -0.288,3.528 -2.232,5.616 -5.256,5.616 -3.24,0 -5.184,-2.232 -5.184,-5.616 v -14.544 c 0,-3.384 1.944,-5.616 5.112,-5.616 2.952,0 4.752,1.872 5.04,5.112 0.072,0.648 0.432,0.936 1.008,0.936 h 4.248 c 0.648,0 1.008,-0.36 0.936,-0.936 -0.432,-6.552 -4.752,-11.016 -11.232,-11.016 -6.768,0 -11.304,4.896 -11.304,11.736 v 14.112 c 0,6.84 4.608,11.736 11.448,11.736 z"
       style="font-variant-ligatures:none;stroke:#1a1b25;stroke-width:1.10000002;stroke-miterlimit:2"
       id="path55530" /><path
       stroke-miterlimit="2"
       d="m 888.26,430.7 c 6.48,0 11.016,-4.464 11.376,-11.16 0,-0.576 -0.36,-0.936 -0.936,-0.936 h -4.248 c -0.576,0 -0.936,0.288 -1.008,0.936 -0.216,3.168 -2.16,5.328 -5.112,5.328 -3.312,0 -5.256,-2.304 -5.256,-5.616 v -3.744 h 5.328 c 6.84,0 11.448,-4.536 11.448,-10.872 0,-6.624 -4.752,-11.448 -11.52,-11.376 -6.912,0 -11.376,4.752 -11.448,11.592 v 14.112 c 0,7.056 4.608,11.736 11.376,11.736 z m -5.184,-20.808 v -5.112 c 0,-3.456 1.872,-5.688 5.256,-5.688 3.312,0 5.328,2.232 5.328,5.688 0,3.024 -1.944,5.112 -5.256,5.112 z"
       style="font-variant-ligatures:none;stroke:#1a1b25;stroke-width:1.10000002;stroke-miterlimit:2"
       id="path55532" /><path
       style="stroke-width:0.95322001"
       d="m 417.14,401.76 c -0.33495,-0.0122 -0.80028,-5.3e-4 -1.0335,0.026 -0.2332,0.026 -0.6026,0.0869 -0.82149,0.13514 -0.21835,0.0477 -0.58828,0.14681 -0.82148,0.21995 -0.23319,0.0726 -0.64553,0.23585 -0.91582,0.36198 -0.27082,0.12667 -0.72396,0.38265 -1.007,0.56974 -0.28355,0.18709 -0.69799,0.49713 -0.92112,0.68899 -0.22312,0.19239 -0.57239,0.54748 -0.7759,0.78915 -0.20299,0.2422 -0.50561,0.64234 -0.67203,0.89038 -0.16589,0.2475 -0.41975,0.69269 -0.56285,0.98896 -0.14363,0.29626 -0.34343,0.79074 -0.44465,1.0992 -0.1007,0.30792 -0.23162,0.79339 -0.29044,1.078 -0.0588,0.2846 -0.13409,0.85912 -0.168,1.2767 -0.0466,0.57769 -0.0466,0.93702 5.2e-4,1.5004 0.0344,0.40756 0.1113,0.99478 0.17119,1.3049 0.0594,0.31005 0.20193,0.85117 0.3164,1.2026 0.11448,0.35139 0.36358,0.94868 0.55384,1.3276 0.19027,0.37895 0.50614,0.91477 0.70223,1.1909 0.1961,0.27613 0.60737,0.75312 0.91318,1.06 0.30633,0.30686 0.75046,0.69534 0.98734,0.86334 0.2369,0.16801 0.65506,0.42346 0.92907,0.56815 0.27453,0.14416 0.66407,0.32435 0.86546,0.40014 0.20193,0.0763 0.60632,0.19504 0.8994,0.26446 0.29256,0.07 0.74199,0.14893 0.99907,0.17649 0.25651,0.027 0.47646,0.0588 0.48811,0.071 0.0116,0.0116 -0.66036,6.1972 -1.4935,13.745 -0.83314,7.5482 -1.521,13.731 -1.5279,13.739 -0.007,0.008 -0.49872,-0.29944 -1.0929,-0.68368 -0.59465,-0.38425 -1.5454,-0.98954 -2.1141,-1.3446 -0.56815,-0.35509 -1.5465,-0.9556 -2.173,-1.334 -0.62644,-0.37841 -1.9143,-1.1299 -2.8619,-1.67 -0.94709,-0.54005 -2.1634,-1.2211 -2.7029,-1.5126 -0.539,-0.29203 -1.5645,-0.83685 -2.279,-1.2105 -0.7139,-0.37418 -1.9424,-0.99478 -2.7294,-1.379 -0.78703,-0.38478 -1.8243,-0.88297 -2.3054,-1.1082 -0.4807,-0.22471 -1.3276,-0.61214 -1.8815,-0.86018 -0.55384,-0.24856 -1.5804,-0.69693 -2.2816,-0.99639 -0.70064,-0.29945 -1.9053,-0.79552 -2.6764,-1.1024 -0.77114,-0.30686 -1.7951,-0.70542 -2.2763,-0.88562 -0.48069,-0.18019 -1.2084,-0.44678 -1.6165,-0.59253 -0.40809,-0.14574 -1.3292,-0.46427 -2.0473,-0.70806 -0.7176,-0.24327 -1.8508,-0.61214 -2.5174,-0.8199 -0.66673,-0.20722 -1.8724,-0.56497 -2.6802,-0.79498 -0.80718,-0.23001 -2.1311,-0.58404 -2.9414,-0.7865 -0.81035,-0.20245 -1.962,-0.47645 -2.5599,-0.60895 -0.5973,-0.13196 -1.5751,-0.3376 -2.173,-0.45685 -0.59729,-0.11925 -1.6372,-0.31004 -2.3102,-0.42399 -0.67308,-0.11395 -1.7347,-0.2793 -2.3584,-0.36729 -0.62433,-0.088 -1.6711,-0.21941 -2.3272,-0.29149 -0.6556,-0.0726 -1.6456,-0.168 -2.1995,-0.21253 -0.55383,-0.0445 -1.4601,-0.11024 -2.014,-0.14628 -0.56762,-0.0366 -2.1284,-0.0657 -3.5774,-0.0662 -1.5173,0 -2.9721,0.0265 -3.5509,0.0662 -0.539,0.0366 -1.3738,0.10229 -1.855,0.14575 -0.4807,0.0435 -1.3393,0.13833 -1.908,0.21094 -0.56815,0.0726 -1.4564,0.20298 -1.9726,0.2899 -0.51674,0.0869 -1.2921,0.23108 -1.7225,0.31958 -0.43088,0.0885 -1.2481,0.27771 -1.8168,0.42029 -0.56814,0.14256 -1.4299,0.37894 -1.9148,0.52522 -0.48494,0.14628 -1.2958,0.41339 -1.802,0.59412 -0.50614,0.1802 -1.29,0.48123 -1.7421,0.66832 -0.45155,0.18761 -1.1496,0.4966 -1.5508,0.68739 -0.40068,0.1908 -1.0446,0.51303 -1.431,0.71655 -0.38584,0.20351 -0.96409,0.52628 -1.2846,0.71654 -0.32065,0.1908 -0.91688,0.56709 -1.325,0.83685 -0.40809,0.26923 -1.0281,0.70435 -1.378,0.96723 -0.34979,0.26234 -0.94603,0.73509 -1.325,1.0504 -0.37894,0.31535 -1.1548,1.0399 -1.7246,1.6096 -0.56974,0.56973 -1.2831,1.3329 -1.5852,1.696 -0.30209,0.36304 -0.74569,0.9243 -0.98582,1.2471 -0.24009,0.3233 -0.63598,0.8872 -0.87925,1.254 -0.24379,0.36675 -0.60789,0.95027 -0.80982,1.2968 l -0.3689,0.63103 -0.50806,-0.0162 c -0.27929,-0.009 -5.074,0.22305 -10.657,0.51569 -5.5815,0.29168 -10.244,0.55763 -10.361,0.59004 -0.11696,0.0324 -0.30932,0.11439 -0.42752,0.18302 -0.1182,0.0677 -0.31694,0.23449 -0.44201,0.36985 -0.12458,0.13631 -0.273,0.35078 -0.32914,0.47756 -0.0562,0.12773 -0.12506,0.40607 -0.15261,0.61959 -0.0308,0.23449 -0.0509,5.6316 -0.0519,13.744 -10e-4,8.9711 0.0164,13.504 0.0535,13.806 0.0355,0.28726 0.11024,0.56656 0.20775,0.77644 0.0837,0.18019 0.25228,0.4367 0.37523,0.56973 0.12879,0.13939 0.37046,0.31429 0.57028,0.41286 0.29255,0.14416 0.40544,0.17066 0.72184,0.17013 0.29255,-5.3e-4 0.44201,-0.0318 0.67838,-0.14044 0.16695,-0.0774 0.40015,-0.24328 0.5178,-0.36888 0.11819,-0.12614 4.8923,-6.5851 10.608,-14.354 5.717,-7.7685 10.455,-14.255 10.529,-14.416 0.0784,-0.1696 0.14786,-0.43565 0.16535,-0.63599 0.017,-0.18921 0.0127,-0.46321 -0.008,-0.60843 -0.0217,-0.14521 -0.11554,-0.41869 -0.20829,-0.60737 l -0.16777,-0.34411 0.18112,-0.34125 c 0.0991,-0.18709 0.37947,-0.65348 0.6222,-1.0356 0.24326,-0.38213 0.62009,-0.94868 0.83792,-1.2593 0.21782,-0.31004 0.61532,-0.83791 0.88348,-1.1734 0.26765,-0.33548 0.77325,-0.92588 1.1231,-1.3123 0.34979,-0.38689 0.9821,-1.0244 1.4045,-1.4172 0.42293,-0.39272 1.1236,-0.99849 1.5576,-1.3461 0.43406,-0.34768 1.0266,-0.80082 1.3165,-1.0064 0.29043,-0.20564 0.81777,-0.55702 1.1718,-0.7812 0.35456,-0.22365 0.89568,-0.5533 1.203,-0.73138 0.30686,-0.17861 0.98687,-0.53953 1.5105,-0.80188 0.52363,-0.26234 1.1786,-0.57663 1.4554,-0.69853 0.27719,-0.12189 0.80188,-0.34078 1.166,-0.48705 0.36463,-0.14628 1.06,-0.40544 1.546,-0.57504 0.486,-0.17013 1.2492,-0.41657 1.696,-0.548 0.44678,-0.13091 1.1463,-0.32171 1.5544,-0.42346 0.40809,-0.10229 1.0668,-0.25758 1.4633,-0.34609 0.39696,-0.088 1.2078,-0.24326 1.802,-0.34502 0.59465,-0.10229 1.4268,-0.23266 1.8492,-0.29044 0.42293,-0.0578 1.2693,-0.15316 1.8815,-0.21199 0.61214,-0.0588 1.5544,-0.13727 2.0935,-0.17384 0.57663,-0.0392 2.0171,-0.0663 3.4979,-0.0657 1.3848,5.3e-4 2.9828,0.0302 3.5509,0.0662 0.56815,0.0355 1.4628,0.1007 1.9875,0.14469 0.52469,0.044 1.4908,0.13991 2.1464,0.21305 0.65613,0.0726 1.6218,0.19239 2.1465,0.26553 0.52469,0.0737 1.4548,0.21624 2.067,0.318 0.61214,0.10123 1.6138,0.28036 2.226,0.39749 0.61213,0.11765 1.7092,0.34502 2.438,0.50508 0.72873,0.16059 1.945,0.44784 2.7029,0.63863 0.75788,0.1908 1.9626,0.5125 2.6764,0.71496 0.71443,0.20245 1.6922,0.48812 2.173,0.63387 0.48123,0.14628 1.4946,0.47009 2.2524,0.71972 0.75788,0.24963 1.8672,0.62751 2.4644,0.83898 0.59783,0.21199 1.6233,0.58775 2.279,0.83526 0.65613,0.24698 1.6817,0.64659 2.279,0.88668 0.59783,0.24008 1.6472,0.6752 2.332,0.96561 0.68529,0.29096 1.8539,0.80399 2.597,1.1395 0.74358,0.33601 2.1624,1.0016 3.1534,1.4798 0.99106,0.47752 2.482,1.2237 3.3124,1.6573 0.83102,0.43353 1.892,0.99583 2.3584,1.2497 0.46639,0.25439 1.2534,0.68952 1.749,0.96723 0.49554,0.27771 1.4734,0.83897 2.173,1.2471 0.69958,0.40809 1.7612,1.0409 2.3584,1.4066 0.59783,0.36516 1.5757,0.97362 2.173,1.3525 0.59783,0.37841 1.4978,0.9577 2.0007,1.2873 0.80664,0.52787 0.91423,0.61532 0.91423,0.74039 0,0.0779 -0.29839,2.8514 -0.66302,6.1632 -0.36516,3.3114 -0.67839,6.1261 -0.6964,6.2539 l -0.0329,0.23266 -0.50932,-0.0334 c -0.28036,-0.0186 -0.98687,-0.0689 -1.5699,-0.11183 -0.58298,-0.0435 -1.8947,-0.12667 -2.9149,-0.18496 -1.0202,-0.0583 -2.439,-0.13039 -3.1534,-0.16059 -0.71389,-0.0302 -2.1332,-0.0784 -3.1534,-0.10706 -1.0202,-0.0286 -3.2621,-0.0519 -4.9819,-0.0519 -1.7198,-5.3e-4 -3.9495,0.0233 -4.9554,0.053 -1.0054,0.0291 -2.5678,0.089 -3.4714,0.1325 -0.90363,0.0435 -2.1793,0.11554 -2.8354,0.15953 -0.6556,0.044 -1.7765,0.12825 -2.491,0.18709 -0.7139,0.0593 -1.7633,0.15475 -2.332,0.21252 -0.56815,0.0578 -1.6414,0.17649 -2.385,0.26394 -0.74305,0.0869 -2.0193,0.25386 -2.8354,0.37046 -0.81619,0.1166 -2.104,0.31799 -2.8619,0.44784 -0.75789,0.12931 -1.9026,0.34184 -2.544,0.47116 -0.64129,0.12931 -1.4521,0.29891 -1.802,0.37629 -0.34979,0.0774 -1.1993,0.28089 -1.8878,0.45208 -0.68898,0.17066 -1.6785,0.43247 -2.1994,0.58086 -0.52151,0.14893 -1.5544,0.47328 -2.2959,0.72132 -0.74145,0.2475 -1.7929,0.62698 -2.3367,0.84268 -0.54324,0.21624 -1.308,0.539 -1.6991,0.7176 -0.3906,0.17808 -1.0086,0.48124 -1.3732,0.67362 -0.3641,0.19186 -0.91689,0.50031 -1.228,0.68475 -0.31111,0.18444 -0.81195,0.5056 -1.113,0.71337 -0.30104,0.20775 -0.66249,0.46956 -0.80293,0.58086 -0.20246,0.16112 -0.27878,0.19398 -0.371,0.159 -0.0636,-0.0244 -3.0729,-1.1702 -6.6874,-2.546 -3.6145,-1.3764 -6.5946,-2.5238 -6.6222,-2.5503 -0.0276,-0.0265 -0.10653,-0.0482 -0.1749,-0.0482 -0.0684,0 -0.18868,0.0339 -0.26764,0.0747 -0.0784,0.0414 -0.22365,0.159 -0.3217,0.26075 -0.15953,0.16641 -0.5496,1.2312 -3.7539,10.247 -1.9663,5.5336 -3.6018,10.183 -3.6336,10.333 -0.044,0.20458 -0.0424,0.34397 0.005,0.55968 0.0387,0.17065 0.13038,0.36675 0.22736,0.4844 0.089,0.10813 0.26129,0.2491 0.38265,0.31323 0.16536,0.0874 0.31216,0.11606 0.59094,0.1166 l 0.37099,5.3e-4 11.686,-6.8273 c 6.4277,-3.7555 11.776,-6.8857 11.886,-6.9566 0.10918,-0.0704 0.26923,-0.22472 0.35455,-0.3429 0.0859,-0.11819 0.18232,-0.34291 0.21465,-0.49926 0.044,-0.21041 0.0435,-0.3429 -0.002,-0.5125 -0.0334,-0.12614 -0.11925,-0.30686 -0.19133,-0.40173 -0.0721,-0.0949 -0.21888,-0.21623 -0.32647,-0.26923 -0.10759,-0.053 -0.63069,-0.25917 -1.1628,-0.45844 -0.53211,-0.19928 -0.96723,-0.37629 -0.96666,-0.39326 0,-0.0174 0.28513,-0.21676 0.6328,-0.4436 0.34768,-0.22683 0.90417,-0.56444 1.2364,-0.75046 0.3323,-0.18603 0.81672,-0.44466 1.0764,-0.57451 0.2597,-0.13037 0.78227,-0.37364 1.1612,-0.54165 0.37894,-0.16748 1.0425,-0.44519 1.4749,-0.61797 0.43195,-0.17224 1.3859,-0.51409 2.12,-0.75946 0.7335,-0.24487 1.7516,-0.56498 2.2615,-0.71072 0.51038,-0.14575 1.4521,-0.3959 2.0934,-0.55543 0.64129,-0.16006 1.6552,-0.39909 2.2525,-0.53105 0.59783,-0.13196 1.6589,-0.34714 2.3584,-0.47805 0.69958,-0.13144 1.6297,-0.29785 2.067,-0.37047 0.43725,-0.0726 1.2842,-0.20404 1.8815,-0.29255 0.59783,-0.088 1.6472,-0.2316 2.332,-0.31852 0.68527,-0.0869 1.5794,-0.1945 1.9874,-0.23955 0.4081,-0.0451 1.3621,-0.14045 2.12,-0.21253 0.75788,-0.0716 2.0219,-0.17808 2.8089,-0.2369 0.78703,-0.0583 2.0988,-0.14204 2.9149,-0.18709 0.81618,-0.0445 2.0446,-0.10546 2.7294,-0.1362 0.68528,-0.0308 3.0226,-0.0694 5.1939,-0.0869 2.4941,-0.0196 4.7879,-0.008 6.2274,0.0307 1.2534,0.0339 3.0305,0.0965 3.9484,0.13886 0.91794,0.0429 2.0988,0.10229 2.6234,0.13196 0.52469,0.0302 1.8009,0.11501 2.8354,0.18815 1.0351,0.0731 2.0606,0.15316 2.2795,0.17701 0.32647,0.036 1.8767,0.56709 8.6653,2.969 4.5468,1.609 8.2827,2.942 8.3012,2.9621 0.0191,0.0201 -0.12401,2.1438 -0.31746,4.7196 l -0.35191,4.683 -0.39749,-0.0334 c -0.21889,-0.018 -1.0896,-0.0795 -1.935,-0.13673 -0.84533,-0.0567 -2.1926,-0.13992 -2.9944,-0.18443 -0.80134,-0.0445 -2.2445,-0.11608 -3.2064,-0.15848 -0.96189,-0.0424 -2.8048,-0.10546 -4.0947,-0.13938 -1.4829,-0.0387 -4.0358,-0.0509 -6.9428,-0.0323 -2.9425,0.0186 -5.2268,0.0583 -6.346,0.1113 -0.96189,0.0456 -2.1783,0.10759 -2.7029,0.13779 -0.52469,0.0302 -1.5979,0.10282 -2.385,0.16112 -0.78703,0.0588 -1.8125,0.14257 -2.279,0.18656 -0.46639,0.0439 -1.3966,0.13991 -2.067,0.21358 -0.67043,0.0731 -1.8268,0.21624 -2.5704,0.31799 -0.74304,0.10177 -1.8523,0.26818 -2.4644,0.37047 -0.61213,0.10281 -1.59,0.28195 -2.173,0.39855 -0.58299,0.11713 -1.4914,0.31693 -2.0182,0.44413 -0.52734,0.12772 -1.2906,0.3286 -1.696,0.44625 -0.40597,0.11766 -1.0833,0.33071 -1.5063,0.47328 -0.4224,0.14257 -1.034,0.36781 -1.3579,0.50137 -0.32435,0.13303 -0.87289,0.38424 -1.219,0.55808 -0.34661,0.17383 -0.88668,0.48547 -1.2004,0.69269 -0.31375,0.2067 -0.7759,0.57346 -1.0266,0.81407 -0.25068,0.24061 -0.57503,0.62062 -0.72131,0.8448 l -0.26553,0.40809 -0.61585,-0.51939 c -0.33866,-0.28566 -1.4146,-1.2036 -2.3913,-2.0405 -0.97629,-0.83685 -1.847,-1.5598 -1.9339,-1.6059 -0.0874,-0.0466 -0.31959,-0.0959 -0.51621,-0.10971 -0.20351,-0.0149 -0.45685,0.002 -0.58882,0.0387 -0.1272,0.036 -0.34714,0.15264 -0.48865,0.25969 -0.1415,0.10706 -0.32276,0.28991 -0.40173,0.40598 -0.0795,0.1166 -2.8683,4.1822 -6.1982,9.0357 -3.3299,4.8531 -6.1208,8.9075 -6.2025,9.0098 -0.0811,0.10175 -0.1961,0.29468 -0.25493,0.42823 -0.0583,0.13356 -0.1219,0.37417 -0.14098,0.53476 -0.0238,0.20404 -0.008,0.38318 0.0541,0.59571 0.0593,0.20351 0.15953,0.38159 0.30209,0.53635 0.11766,0.12719 0.32011,0.28301 0.45049,0.34608 0.18815,0.0911 0.30634,0.11023 0.57292,0.0932 l 0.33601,-0.0212 11.255,-4.6862 11.255,-4.6867 0.42875,-0.42558 c 0.30846,-0.30633 0.47859,-0.5284 0.60684,-0.79021 0.15052,-0.30898 0.18073,-0.43459 0.19769,-0.82148 l 0.0201,-0.45738 -0.14945,-0.2915 -0.14999,-0.29149 -2.1465,-1.7908 c -1.1803,-0.98467 -2.1544,-1.8268 -2.1645,-1.8714 -0.01,-0.0445 0.0498,-0.21676 0.1325,-0.38265 0.0896,-0.17913 0.31163,-0.46321 0.548,-0.70064 0.21889,-0.21942 0.62327,-0.54961 0.89939,-0.73403 0.2756,-0.18392 0.78227,-0.47541 1.1252,-0.64712 0.34344,-0.17225 0.91635,-0.4293 1.2741,-0.57133 0.35721,-0.14204 1.0197,-0.37841 1.4713,-0.52522 0.45208,-0.14681 1.1337,-0.35244 1.5147,-0.45686 0.3816,-0.1044 1.0971,-0.28354 1.59,-0.39855 0.49342,-0.11447 1.3859,-0.30368 1.9833,-0.41974 0.59782,-0.1166 1.6949,-0.30793 2.4379,-0.42453 0.74358,-0.11712 1.9239,-0.28566 2.6234,-0.37417 0.69959,-0.0885 1.7251,-0.20775 2.279,-0.26499 0.55383,-0.0578 1.4246,-0.14098 1.9344,-0.18603 0.51039,-0.0445 1.4167,-0.1166 2.014,-0.16059 0.59783,-0.0435 1.5041,-0.10387 2.014,-0.13355 0.51038,-0.0302 1.7146,-0.0922 2.6764,-0.1378 1.131,-0.0541 3.375,-0.0938 6.3487,-0.11236 2.9123,-0.0186 5.4499,-0.007 6.9164,0.0323 1.2741,0.0339 3.1153,0.0965 4.0921,0.13938 0.97676,0.0424 2.4194,0.11394 3.2064,0.15847 0.78704,0.0445 1.9678,0.1166 2.6234,0.16005 0.65612,0.0435 1.6334,0.11449 2.173,0.15741 l 0.98048,0.079 6.7526,2.6759 c 3.7141,1.4718 6.7616,2.6849 6.7727,2.6961 0.0112,0.0112 -0.10017,2.4724 -0.24698,5.47 -0.14627,2.9976 -0.2491,5.4647 -0.22736,5.4833 0.0217,0.0186 2.5201,0.49289 5.5516,1.0546 3.0315,0.56179 5.5771,1.0335 5.6571,1.0488 l 0.14469,0.027 0.0143,1.8279 0.0138,1.8274 5.5643,1.7219 5.5643,1.7219 0.25757,0.25757 c 0.14151,0.14151 0.33231,0.28196 0.42452,0.31111 0.0917,0.0296 4.1859,1.1194 9.0972,2.4216 4.9119,1.3016 8.9934,2.3781 9.0707,2.3918 0.0959,0.0164 0.17595,-0.0111 0.25174,-0.0869 0.0822,-0.0822 0.1113,-0.17808 0.1113,-0.36304 -5.3e-4,-0.15582 -0.0398,-0.31641 -0.10335,-0.42081 -0.0573,-0.0933 -2.2784,-2.4544 -4.9363,-5.2469 -2.6579,-2.793 -5.098,-5.3492 -5.4218,-5.681 -0.34078,-0.34925 -0.67786,-0.64446 -0.80081,-0.70117 -0.1166,-0.0541 -0.28355,-0.0986 -0.37099,-0.0991 -0.12985,-9.5e-4 -0.44573,0.2332 -1.7225,1.2778 -0.86017,0.70329 -2.4613,2.0272 -3.5588,2.9414 -1.0976,0.91423 -2.0245,1.6626 -2.0606,1.6626 -0.0355,0 -2.1905,-0.65719 -4.7885,-1.4601 -2.5975,-0.80293 -4.8362,-1.4962 -4.9745,-1.5407 l -0.25069,-0.0811 -0.0143,-1.8894 -0.0138,-1.8889 -5.6709,-1.0542 c -3.119,-0.58034 -5.6767,-1.06 -5.6841,-1.0658 -0.007,-0.007 0.0933,-2.2036 0.22313,-4.8833 0.12985,-2.6796 0.24962,-5.0386 0.26605,-5.2427 0.0164,-0.20404 0.29309,-2.8752 0.61425,-5.9359 0.32171,-3.0607 0.59518,-5.6152 0.6079,-5.6773 l 0.0228,-0.11235 0.72979,-0.0276 c 0.49024,-0.0186 0.86283,-0.0631 1.1363,-0.13621 0.22366,-0.0599 0.58299,-0.18231 0.79923,-0.27188 0.2157,-0.0901 0.5814,-0.2862 0.81194,-0.43671 0.23107,-0.14999 0.6487,-0.50084 0.92801,-0.78014 0.27983,-0.2793 0.63492,-0.69641 0.78915,-0.92696 0.15476,-0.23107 0.38371,-0.63651 0.50879,-0.90098 0.12508,-0.26499 0.2862,-0.66195 0.35775,-0.8819 0.0716,-0.22048 0.17436,-0.60207 0.22842,-0.84798 0.0784,-0.35668 0.098,-0.66354 0.0959,-1.5078 l -0.003,-1.06 -0.13992,-0.51833 c -0.0774,-0.2846 -0.24697,-0.74357 -0.37788,-1.0192 -0.13037,-0.27559 -0.3641,-0.6858 -0.51939,-0.91211 -0.15529,-0.22578 -0.47328,-0.60154 -0.707,-0.83527 -0.23373,-0.23373 -0.60313,-0.54748 -0.82148,-0.69747 -0.21783,-0.14945 -0.58935,-0.3694 -0.82519,-0.48812 -0.23532,-0.11871 -0.64077,-0.28725 -0.90098,-0.3747 -0.2597,-0.0869 -0.68422,-0.19504 -0.94338,-0.24009 -0.27242,-0.0477 -0.77379,-0.0816 -1.1919,-0.0811 -0.4314,5.3e-4 -0.8713,0.0323 -1.0929,0.079 -0.20405,0.0435 -0.52575,0.12825 -0.71549,0.1892 -0.1892,0.0609 -0.53529,0.2067 -0.76848,0.32383 -0.2332,0.11713 -0.57504,0.32011 -0.75894,0.45155 -0.18444,0.1309 -0.49024,0.38318 -0.67945,0.56019 -0.18921,0.17701 -0.4966,0.52523 -0.68368,0.77432 -0.18709,0.24909 -0.45738,0.69217 -0.60154,0.98467 -0.14416,0.29256 -0.32277,0.72715 -0.39749,0.96618 -0.0742,0.23956 -0.17543,0.71549 -0.22472,1.0589 -0.0774,0.53741 -0.0816,0.7441 -0.0318,1.4993 0.0403,0.60154 0.10017,1.0382 0.19133,1.3944 0.0737,0.2846 0.24009,0.74357 0.37099,1.0192 0.13037,0.27559 0.3641,0.6858 0.51939,0.91104 0.15529,0.22525 0.46109,0.59094 0.67945,0.81194 0.21888,0.22154 0.57663,0.52893 0.79498,0.68263 0.21889,0.15423 0.60048,0.38265 0.84798,0.5072 0.24804,0.12508 0.63758,0.29414 0.86653,0.37523 l 0.41604,0.14734 -0.0281,0.19026 c -0.0153,0.10441 -0.27346,2.51 -0.57344,5.3465 -0.29998,2.836 -0.55914,5.1785 -0.57557,5.205 -0.0164,0.0271 -2.8905,-1.0844 -6.3864,-2.4698 -3.4963,-1.3854 -6.3615,-2.5233 -6.3673,-2.5291 -0.006,-0.006 0.1431,-2.0378 0.33071,-4.5155 0.18814,-2.4771 0.36622,-4.8504 0.39643,-5.2728 0.0302,-0.42293 0.2438,-4.3343 0.47488,-8.6918 0.23107,-4.3581 0.43405,-8.0902 0.45101,-8.2943 l 0.0308,-0.37099 0.93756,-10e-4 c 0.56867,-5.3e-4 1.0626,-0.0281 1.2556,-0.07 0.1749,-0.0376 0.52045,-0.12931 0.76849,-0.20299 0.24803,-0.0737 0.64553,-0.22683 0.88349,-0.34025 0.23797,-0.11341 0.64341,-0.34714 0.90098,-0.51992 0.25758,-0.17225 0.66513,-0.49713 0.90681,-0.72184 0.24115,-0.22471 0.62804,-0.6609 0.86018,-0.9699 0.23584,-0.31429 0.54853,-0.81883 0.70965,-1.1469 0.15899,-0.3217 0.35032,-0.78385 0.4261,-1.0271 0.0753,-0.24327 0.1749,-0.67256 0.22102,-0.95398 0.062,-0.3763 0.0768,-0.71549 0.0561,-1.2805 -0.0174,-0.47222 -0.0689,-0.95239 -0.13409,-1.2455 -0.0583,-0.26235 -0.18178,-0.69164 -0.27452,-0.95398 -0.0928,-0.26235 -0.22843,-0.59624 -0.30157,-0.74199 -0.0726,-0.14575 -0.2173,-0.40809 -0.32117,-0.58299 -0.10335,-0.17489 -0.33867,-0.51197 -0.52151,-0.74887 -0.18338,-0.23691 -0.51939,-0.60313 -0.74623,-0.813 -0.22683,-0.21041 -0.6275,-0.52522 -0.88985,-0.69905 -0.26234,-0.17437 -0.66778,-0.4081 -0.90098,-0.51886 -0.23319,-0.1113 -0.61214,-0.26499 -0.84268,-0.34131 -0.23001,-0.0768 -0.6593,-0.19079 -0.95398,-0.2528 -0.39219,-0.0832 -0.73298,-0.11448 -1.2773,-0.11766 -0.5337,-0.003 -0.86759,0.0233 -1.1898,0.0933 -0.24591,0.0535 -0.6275,0.15581 -0.84798,0.22683 -0.21995,0.0716 -0.64394,0.24645 -0.94179,0.38795 -0.29785,0.14204 -0.76266,0.40863 -1.0335,0.59253 -0.27029,0.18444 -0.74357,0.58564 -1.051,0.89198 -0.35244,0.35138 -0.68951,0.75417 -0.91263,1.0902 -0.19504,0.29361 -0.43565,0.71072 -0.53477,0.92748 -0.0996,0.21676 -0.24114,0.57557 -0.31481,0.79763 -0.0737,0.22207 -0.17489,0.64871 -0.22524,0.94815 -0.07,0.41816 -0.0838,0.71813 -0.0609,1.2927 0.018,0.43936 0.0737,0.94444 0.13568,1.2248 0.0583,0.26234 0.18178,0.69163 0.27452,0.95398 0.0928,0.26234 0.22843,0.59623 0.30157,0.74198 0.0726,0.14575 0.2173,0.40809 0.32117,0.58299 0.10335,0.1749 0.33708,0.50879 0.51886,0.74198 0.18179,0.2332 0.45791,0.54536 0.61373,0.69429 0.15582,0.1484 0.42399,0.38212 0.59624,0.51939 0.17225,0.13726 0.50931,0.36569 0.74887,0.5072 0.23956,0.1415 0.59942,0.32753 0.79976,0.41285 0.20033,0.0859 0.44465,0.18762 0.54376,0.22631 l 0.17914,0.0705 -0.0302,0.4542 c -0.0164,0.24962 -0.21411,3.9124 -0.43989,8.139 -0.22525,4.2267 -0.42664,7.7045 -0.44784,7.7289 -0.0207,0.0244 -3.0156,-1.0091 -6.6556,-2.297 -3.64,-1.2873 -7.1426,-2.5264 -7.784,-2.7533 -0.64128,-0.22736 -1.2195,-0.42929 -1.2852,-0.44943 -0.0806,-0.0249 -0.11925,-0.0784 -0.11925,-0.16377 0,-0.07 1.0377,-9.5307 2.3065,-21.024 1.2683,-11.493 2.3156,-20.922 2.3261,-20.953 0.0112,-0.0307 0.18337,-0.0853 0.38317,-0.12084 0.20034,-0.036 0.59942,-0.1378 0.88773,-0.2263 0.28779,-0.0885 0.72874,-0.25546 0.97943,-0.371 0.25016,-0.11606 0.72397,-0.38954 1.0521,-0.60789 0.32859,-0.21889 0.80983,-0.59995 1.0695,-0.84745 0.25969,-0.24698 0.60313,-0.61002 0.76213,-0.80612 0.15952,-0.19556 0.41391,-0.54164 0.56549,-0.76848 0.15105,-0.22684 0.41551,-0.70383 0.58723,-1.06 0.17171,-0.35615 0.38477,-0.87024 0.47328,-1.1416 0.088,-0.27189 0.20828,-0.72503 0.26606,-1.007 0.0583,-0.28249 0.13355,-0.83844 0.16747,-1.2359 0.0461,-0.54483 0.0461,-0.89515 5.3e-4,-1.4209 -0.0329,-0.38371 -0.10918,-0.94126 -0.1696,-1.238 -0.0599,-0.29679 -0.20404,-0.82625 -0.32064,-1.1761 -0.11606,-0.34979 -0.34025,-0.89833 -0.49819,-1.219 -0.15794,-0.32064 -0.4224,-0.78598 -0.58723,-1.0335 -0.16535,-0.24804 -0.46374,-0.64553 -0.66408,-0.88349 -0.1998,-0.23796 -0.53899,-0.59199 -0.75364,-0.7865 -0.21464,-0.1945 -0.58351,-0.49183 -0.81935,-0.66037 -0.23638,-0.16854 -0.66673,-0.42876 -0.95713,-0.57822 -0.29096,-0.14893 -0.77484,-0.3535 -1.0764,-0.4542 -0.30156,-0.1007 -0.76265,-0.22048 -1.025,-0.26658 -0.26234,-0.0456 -0.75152,-0.0927 -1.0865,-0.10494 z m 0.0149,1.3271 c 0.31376,0.0133 0.74305,0.0599 0.95398,0.10388 0.21041,0.044 0.53794,0.12985 0.72715,0.19133 0.1892,0.0615 0.55914,0.21836 0.82148,0.34874 0.26234,0.13038 0.62327,0.34078 0.80134,0.46798 0.17861,0.1272 0.47805,0.36198 0.66514,0.5215 0.18709,0.16006 0.49713,0.47699 0.68898,0.70436 0.19133,0.22789 0.47964,0.61637 0.64023,0.86441 0.16059,0.2475 0.36358,0.59359 0.45049,0.76849 0.0874,0.17489 0.24804,0.55648 0.35721,0.84798 0.10865,0.29149 0.25387,0.78014 0.32171,1.0865 0.0684,0.30581 0.15211,0.81884 0.18602,1.1395 0.0371,0.34874 0.0477,0.81724 0.0259,1.166 -0.0201,0.32064 -0.0843,0.83049 -0.14204,1.1326 -0.0583,0.30209 -0.1786,0.76743 -0.26712,1.0335 -0.0885,0.26605 -0.27718,0.7176 -0.41975,1.0033 -0.14204,0.28566 -0.40809,0.7388 -0.5904,1.007 -0.18285,0.26818 -0.56179,0.71707 -0.84269,0.99687 -0.29679,0.29626 -0.73032,0.65613 -1.0356,0.85912 -0.28831,0.19239 -0.70754,0.433 -0.93119,0.53475 -0.22365,0.10176 -0.60471,0.24486 -0.84639,0.31746 -0.2422,0.0726 -0.58299,0.15635 -0.75788,0.1855 -0.1749,0.0291 -0.50985,0.0689 -0.7441,0.088 -0.23427,0.0196 -0.67733,0.008 -0.98363,-0.0249 -0.30686,-0.0328 -0.78279,-0.11978 -1.0579,-0.19291 -0.27506,-0.0731 -0.76371,-0.26129 -1.0859,-0.41816 -0.32223,-0.1574 -0.77537,-0.42664 -1.007,-0.59888 -0.23161,-0.17225 -0.60684,-0.5019 -0.83314,-0.73298 -0.22684,-0.23108 -0.55755,-0.62327 -0.7351,-0.87077 -0.17702,-0.24804 -0.46056,-0.73669 -0.63016,-1.0865 -0.16906,-0.34979 -0.37099,-0.83898 -0.44836,-1.0865 -0.0774,-0.24803 -0.18657,-0.66513 -0.24222,-0.92748 -0.0557,-0.26234 -0.12931,-0.79287 -0.16376,-1.1792 -0.0488,-0.54271 -0.0488,-0.86177 0,-1.4045 0.035,-0.38636 0.10865,-0.90734 0.16376,-1.1575 0.0557,-0.25015 0.1643,-0.64393 0.24168,-0.87448 0.0774,-0.23001 0.24433,-0.63333 0.37153,-0.89621 0.1272,-0.26235 0.35721,-0.66779 0.51144,-0.90098 0.15422,-0.2332 0.54376,-0.68952 0.86494,-1.0144 0.37416,-0.37841 0.75682,-0.70277 1.0653,-0.90416 0.26446,-0.17331 0.71178,-0.41551 0.99373,-0.539 0.28195,-0.12401 0.74145,-0.28301 1.0213,-0.35403 0.2793,-0.071 0.6911,-0.15158 0.91423,-0.17914 0.22313,-0.0276 0.66249,-0.0392 0.97676,-0.026 z m -96.132,41.104 0.62804,-0.007 0.17489,0.17489 c 0.0959,0.0959 0.20034,0.26818 0.23214,0.38265 0.0392,0.14151 0.0403,0.26976 0.004,0.40333 -0.0344,0.12825 -3.6426,5.0746 -10.457,14.335 -5.7228,7.777 -10.468,14.188 -10.545,14.245 l -0.14045,0.10494 -0.18391,-0.088 c -0.115,-0.0546 -0.22471,-0.16694 -0.29202,-0.29944 l -0.12154,-0.20971 v -27.681 l 0.14946,-0.14999 c 0.12349,-0.12296 0.20988,-0.15476 0.49024,-0.1802 0.18761,-0.0164 1.307,-0.0784 2.4872,-0.13779 1.1808,-0.0588 3.5058,-0.17809 5.1674,-0.26447 1.6616,-0.0864 4.2012,-0.21888 5.6444,-0.29361 1.4432,-0.0752 3.4105,-0.18019 4.3724,-0.23319 0.96189,-0.0535 2.0314,-0.10016 2.377,-0.10388 z m 123.87,17.222 c 0.49024,-0.002 0.82202,0.0276 1.1496,0.0996 0.25281,0.0562 0.62274,0.16589 0.82148,0.24433 0.19822,0.0784 0.54961,0.2528 0.77962,0.38742 0.23055,0.13461 0.6079,0.42188 0.83844,0.6381 0.23108,0.21624 0.52257,0.53848 0.64871,0.71549 0.12561,0.17702 0.31428,0.49395 0.41922,0.70436 0.10547,0.20987 0.24539,0.56761 0.3111,0.79498 0.106,0.36463 0.11925,0.52734 0.1166,1.3933 l -0.003,0.98048 -0.14575,0.52999 c -0.0806,0.29149 -0.24909,0.74782 -0.3747,1.0134 -0.12614,0.26606 -0.32435,0.6238 -0.44095,0.79499 -0.11606,0.17172 -0.32647,0.43936 -0.46745,0.59571 -0.14044,0.15687 -0.4118,0.40279 -0.60313,0.54747 -0.19079,0.14522 -0.51673,0.34503 -0.72449,0.44519 -0.20775,0.0996 -0.56338,0.22897 -0.79022,0.28726 -0.30156,0.0768 -0.5851,0.10547 -1.0536,0.10493 -0.4155,-5.2e-4 -0.80875,-0.0356 -1.1183,-0.0996 -0.26287,-0.054 -0.64446,-0.16429 -0.84798,-0.24432 -0.20405,-0.0805 -0.55914,-0.25652 -0.78915,-0.39114 -0.23055,-0.13461 -0.6079,-0.42186 -0.83844,-0.6381 -0.23108,-0.21624 -0.52258,-0.53847 -0.64872,-0.71549 -0.1256,-0.17702 -0.31692,-0.49924 -0.42557,-0.71601 -0.10812,-0.21677 -0.25599,-0.62221 -0.32807,-0.90099 -0.11447,-0.44254 -0.13196,-0.62856 -0.13674,-1.4612 l -0.006,-0.95398 0.14204,-0.52999 c 0.0784,-0.2915 0.2491,-0.74464 0.37948,-1.007 0.12985,-0.26234 0.38954,-0.66779 0.57663,-0.90098 0.18655,-0.2332 0.4913,-0.54642 0.67679,-0.69535 0.18602,-0.14945 0.45685,-0.34449 0.6026,-0.43353 0.14574,-0.0885 0.39643,-0.21305 0.55649,-0.27665 0.16058,-0.0636 0.45844,-0.15953 0.66248,-0.21305 0.26711,-0.0705 0.56391,-0.0986 1.06,-0.0996 z m -75.761,20.297 c 0.0848,0 0.67627,0.47434 1.8941,1.5194 0.9741,0.83579 3.2022,2.7125 4.9512,4.17 1.749,1.458 3.1953,2.6733 3.2139,2.7008 0.0186,0.0281 0.0143,0.11978 -0.0101,0.20457 -0.0244,0.0848 -0.0917,0.23055 -0.14946,0.32436 -0.0583,0.0933 -0.18496,0.24538 -0.28143,0.33761 -0.13938,0.13249 -2.4915,1.1326 -11.269,4.789 -6.1013,2.5418 -11.107,4.6078 -11.123,4.5913 -0.0164,-0.0159 -0.0148,-0.0885 0.003,-0.16059 0.018,-0.0716 0.089,-0.19821 0.15794,-0.28036 0.0689,-0.0827 2.845,-4.1116 6.169,-8.9531 3.3241,-4.842 6.106,-8.9022 6.1823,-9.0231 0.0975,-0.15475 0.1749,-0.21994 0.26129,-0.21994 z"
       id="icon" /></g></svg>