<?xml version="1.0" encoding="UTF-8" standalone="no"?>
<svg
   xmlns:dc="http://purl.org/dc/elements/1.1/"
   xmlns:cc="http://creativecommons.org/ns#"
   xmlns:rdf="http://www.w3.org/1999/02/22-rdf-syntax-ns#"
   xmlns:svg="http://www.w3.org/2000/svg"
   xmlns="http://www.w3.org/2000/svg"
   id="svg4"
   xml:space="preserve"
   viewBox="0 0 1024 768"
   y="0px"
   x="0px"
   version="1.1"><metadata
     id="metadata10"><rdf:RDF><cc:Work
         rdf:about=""><dc:format>image/svg+xml</dc:format><dc:type
           rdf:resource="http://purl.org/dc/dcmitype/StillImage" /></cc:Work></rdf:RDF></metadata><defs
     id="defs8" /><path
     id="path2"
     d="m665.79 267.65c-3.79 0-7.03 1.28-9.31 3.66-2.27 2.37-3.55 5.82-3.55 10.07v0.96h-3.55c-0.41 0-0.8 0.14-1.08 0.41-0.27 0.28-0.41 0.68-0.41 1.08v3.74c0 0.4 0.14 0.8 0.41 1.07 0.28 0.28 0.67 0.42 1.08 0.42h3.55v28.82c0 0.43 0.13 0.85 0.42 1.14 0.3 0.29 0.71 0.42 1.14 0.42h4.17c0.41 0 0.81-0.13 1.1-0.41 0.3-0.28 0.46-0.7 0.46-1.15v-28.82h6.58c0.4 0 0.8-0.14 1.07-0.42 0.28-0.27 0.42-0.67 0.42-1.07v-3.74c0-0.4-0.14-0.8-0.42-1.08-0.27-0.27-0.67-0.41-1.07-0.41h-6.58v-1.32c0-2.29 0.55-3.88 1.49-4.9 0.93-1.02 2.28-1.53 4.08-1.53 0.41 0 0.81-0.14 1.09-0.44 0.27-0.29 0.4-0.7 0.4-1.12v-3.82c0-0.42-0.13-0.83-0.4-1.12-0.28-0.3-0.68-0.44-1.09-0.44zm-359.19 0.29c-0.42 0-0.83 0.13-1.12 0.4-0.29 0.28-0.44 0.69-0.44 1.09v48.45c0 0.43 0.13 0.85 0.43 1.14 0.29 0.29 0.71 0.42 1.13 0.42h4.18c0.43 0 0.84-0.13 1.14-0.42 0.29-0.29 0.42-0.71 0.42-1.14v-48.45c0-0.4-0.14-0.81-0.44-1.09-0.29-0.27-0.69-0.4-1.12-0.4h-4.18zm155.95 0c-0.43 0-0.84 0.13-1.13 0.4-0.29 0.28-0.43 0.69-0.43 1.09v14.25c-1.45-1.26-3.22-2.13-5.43-2.13-3.38 0-6.23 1.29-8.2 3.49-1.98 2.19-3.07 5.26-3.07 8.8v14.11c0 3.54 1.18 6.62 3.28 8.81 2.11 2.19 5.13 3.47 8.71 3.47 7.11 0 12-5.2 12-12.28v-38.52c0-0.4-0.14-0.81-0.43-1.09-0.3-0.27-0.7-0.4-1.13-0.4h-4.17zm322.22 0c-0.43 0-0.83 0.13-1.13 0.4-0.29 0.28-0.43 0.69-0.43 1.09v48.45c0 0.43 0.13 0.85 0.42 1.14 0.3 0.29 0.71 0.42 1.14 0.42h4.18c0.42 0 0.84-0.13 1.13-0.42s0.42-0.71 0.42-1.14v-48.45c0-0.4-0.14-0.81-0.43-1.09-0.29-0.27-0.7-0.4-1.12-0.4h-4.18zm-390.59 2.45c-2.43 0-4.22 1.88-4.22 4.29 0 2.36 1.79 4.23 4.22 4.23 2.39 0 4.29-1.97 4.29-4.23 0-2.44-1.92-4.29-4.29-4.29zm240.56 0c-2.43 0-4.22 1.88-4.22 4.29 0 2.36 1.79 4.23 4.22 4.23 2.39 0 4.29-1.97 4.29-4.23 0-2.44-1.93-4.29-4.29-4.29zm46.96 0c-2.43 0-4.23 1.88-4.23 4.29 0 2.36 1.8 4.23 4.23 4.23 2.39 0 4.29-1.97 4.29-4.23 0-2.44-1.93-4.29-4.29-4.29zm51.59 0c-2.43 0-4.22 1.88-4.22 4.29 0 2.36 1.79 4.23 4.22 4.23 2.39 0 4.3-1.97 4.3-4.23 0-2.44-1.93-4.29-4.3-4.29zm-125.41 1.65c-0.42 0-0.84 0.13-1.13 0.43-0.3 0.29-0.43 0.71-0.43 1.13v8.74h-3.48c-0.4 0-0.79 0.14-1.07 0.41-0.28 0.28-0.41 0.68-0.41 1.08v3.74c0 0.4 0.13 0.8 0.41 1.07 0.28 0.28 0.67 0.42 1.07 0.42h3.48v17.3c0 4.06 1.1 7.39 3.16 9.71s5.08 3.59 8.77 3.59h1.08c0.43 0 0.83-0.13 1.13-0.4 0.29-0.28 0.43-0.69 0.43-1.09v-3.96c0-0.4-0.14-0.8-0.43-1.08-0.3-0.28-0.7-0.4-1.13-0.4h-0.79c-1.72 0-2.91-0.51-3.72-1.52-0.82-1-1.28-2.58-1.28-4.77v-17.38h5c0.4 0 0.79-0.14 1.07-0.42 0.28-0.27 0.41-0.67 0.41-1.07v-3.74c0-0.4-0.13-0.8-0.41-1.08-0.28-0.27-0.67-0.41-1.07-0.41h-5v-8.74c0-0.42-0.12-0.83-0.4-1.12s-0.68-0.44-1.08-0.44h-4.18zm-326.16 9.51c-6.66 0-11.19 4.75-11.64 11.24v0.02 0.02c0 0.4 0.13 0.79 0.39 1.09 0.27 0.29 0.67 0.46 1.1 0.46h4.17c0.39 0 0.77-0.06 1.07-0.31 0.31-0.26 0.44-0.64 0.49-1.04v-0.01-0.01c0.1-1.38 0.53-2.49 1.25-3.25 0.71-0.76 1.71-1.21 3.1-1.21 1.49 0 2.62 0.5 3.4 1.35 0.78 0.84 1.23 2.07 1.23 3.58v3.4h-4.85c-7.02 0-11.92 4.88-11.92 11.14 0 7.02 4.97 12.14 12.21 12.14 3.58 0 6.55-1.24 8.6-3.37 2.06-2.13 3.18-5.12 3.18-8.55v-14.48c0-3.5-1.14-6.56-3.2-8.74-2.06-2.19-5.03-3.47-8.58-3.47zm69.88 0c-3.41 0-6.29 1.29-8.3 3.48-2 2.19-3.12 5.27-3.12 8.81v24.04c0 0.43 0.13 0.85 0.42 1.14 0.3 0.29 0.71 0.42 1.14 0.42h4.1c0.43 0 0.85-0.13 1.14-0.42s0.42-0.71 0.42-1.14v-24.26c0-1.6 0.41-2.87 1.12-3.73 0.7-0.85 1.71-1.34 3.08-1.34 1.38 0 2.36 0.48 3.05 1.34 0.69 0.85 1.08 2.13 1.08 3.73v24.26c0 0.43 0.13 0.85 0.43 1.14 0.29 0.29 0.71 0.42 1.13 0.42h4.18c0.4 0 0.8-0.14 1.08-0.43s0.4-0.7 0.4-1.13v-24.26c0-1.6 0.41-2.87 1.12-3.73 0.71-0.85 1.71-1.34 3.09-1.34 1.37 0 2.35 0.48 3.04 1.34 0.69 0.85 1.09 2.13 1.09 3.73v24.26c0 0.43 0.13 0.85 0.42 1.14s0.71 0.42 1.13 0.42h4.18c0.4 0 0.81-0.14 1.08-0.43 0.28-0.29 0.41-0.7 0.41-1.13v-24.04c0-3.54-1.11-6.61-3.09-8.81-1.98-2.19-4.85-3.48-8.26-3.48-3.31 0-6.01 1.68-7.78 4.07-1.78-2.4-4.53-4.07-7.78-4.07zm69.82 0c-6.96 0-11.78 5.2-11.78 12.29v24.04c0 0.43 0.13 0.85 0.42 1.14s0.71 0.42 1.14 0.42h4.17c0.43 0 0.84-0.13 1.14-0.42 0.29-0.29 0.42-0.71 0.42-1.14v-24.26c0-1.59 0.44-2.87 1.2-3.75s1.84-1.39 3.29-1.39 2.53 0.51 3.29 1.39 1.2 2.16 1.2 3.75v24.26c0 0.43 0.13 0.85 0.42 1.14 0.3 0.29 0.71 0.42 1.14 0.42h4.17c0.43 0 0.85-0.13 1.14-0.42s0.42-0.71 0.42-1.14v-24.04c0-7.09-4.82-12.29-11.78-12.29zm69.15 0c-6.72 0-11.42 4.59-11.42 10.63 0 3.08 1.11 5.34 2.74 7.02 1.64 1.68 3.77 2.79 5.86 3.75s4.14 1.77 5.62 2.74c1.47 0.97 2.34 2.02 2.34 3.63 0 1.17-0.38 2.12-1.1 2.8-0.73 0.68-1.84 1.11-3.39 1.11-1.77 0-2.97-0.46-3.78-1.3-0.82-0.84-1.29-2.12-1.43-3.88v-0.01c-0.05-0.47-0.24-0.87-0.55-1.12-0.31-0.24-0.68-0.31-1.01-0.31h-4.17c-0.52 0-0.98 0.19-1.24 0.53s-0.32 0.74-0.32 1.1v0.01c0.11 3.29 1.29 6.29 3.44 8.47s5.26 3.51 9.13 3.51c6.94 0 11.71-4.73 11.71-10.84 0-3.15-1.11-5.47-2.75-7.18s-3.79-2.85-5.89-3.8-4.16-1.74-5.65-2.67c-1.48-0.93-2.34-1.91-2.34-3.42 0-1.15 0.42-2.09 1.16-2.76s1.82-1.08 3.18-1.08c1.43 0 2.45 0.45 3.17 1.19 0.72 0.75 1.15 1.82 1.25 3.13l0.01 0.01v0.01c0.05 0.39 0.2 0.76 0.48 1.02s0.67 0.4 1.07 0.4h4.25c0.49 0 0.93-0.21 1.18-0.53 0.24-0.32 0.31-0.7 0.31-1.03v-0.01-0.01c-0.12-2.91-1.05-5.69-3-7.75-1.94-2.06-4.89-3.36-8.86-3.36zm64.19 0c-6.66 0-11.19 4.75-11.63 11.24l-0.01 0.02v0.02c0 0.4 0.13 0.79 0.4 1.09 0.26 0.29 0.67 0.46 1.09 0.46h4.18c0.38 0 0.76-0.06 1.07-0.31 0.31-0.26 0.44-0.64 0.48-1.04v-0.01-0.01c0.1-1.38 0.54-2.49 1.25-3.25s1.71-1.21 3.1-1.21c1.5 0 2.62 0.5 3.4 1.35 0.79 0.84 1.23 2.07 1.23 3.58v3.4h-4.85c-7.01 0-11.92 4.88-11.92 11.14 0 7.02 4.98 12.14 12.21 12.14 3.59 0 6.55-1.24 8.61-3.37 2.05-2.13 3.17-5.12 3.17-8.55v-14.48c0-3.5-1.14-6.56-3.2-8.74-2.06-2.19-5.03-3.47-8.58-3.47zm153.11 0c-7.03 0-11.85 5.2-11.85 12.29v14.11c0 7.08 4.89 12.28 11.99 12.28 3.41 0 6.3-1.23 8.38-3.35 2.07-2.12 3.32-5.11 3.55-8.61v-0.02-0.01c0-0.46-0.12-0.87-0.39-1.18-0.28-0.31-0.69-0.45-1.1-0.45h-4.32c-0.38 0-0.78 0.11-1.05 0.4-0.28 0.29-0.39 0.67-0.43 1.1v0.01c-0.14 1.67-0.66 2.95-1.46 3.8-0.79 0.85-1.86 1.31-3.25 1.31-1.49 0-2.62-0.5-3.4-1.36s-1.23-2.12-1.23-3.71v-14.54c0-1.59 0.45-2.85 1.23-3.71 0.77-0.86 1.87-1.36 3.33-1.36 1.36 0 2.38 0.42 3.13 1.18 0.74 0.76 1.23 1.91 1.36 3.43v0.01 0.01c0.05 0.41 0.2 0.79 0.5 1.06 0.29 0.26 0.68 0.36 1.06 0.36h4.25c0.42 0 0.83-0.12 1.12-0.41s0.4-0.72 0.35-1.14c-0.22-3.37-1.46-6.25-3.5-8.29-2.05-2.04-4.9-3.21-8.27-3.21zm52.01 0c-6.66 0-11.18 4.75-11.63 11.24v0.02 0.02c0 0.4 0.13 0.79 0.39 1.09 0.27 0.29 0.67 0.46 1.09 0.46h4.18c0.38 0 0.76-0.06 1.07-0.31 0.31-0.26 0.44-0.64 0.48-1.04v-0.01-0.01c0.11-1.38 0.54-2.49 1.25-3.25 0.72-0.76 1.71-1.21 3.1-1.21 1.5 0 2.62 0.5 3.41 1.35 0.78 0.84 1.23 2.07 1.23 3.58v3.4h-4.85c-7.02 0-11.93 4.88-11.93 11.14 0 7.02 4.98 12.14 12.21 12.14 3.59 0 6.56-1.24 8.61-3.37s3.18-5.12 3.18-8.55v-14.48c0-3.5-1.15-6.56-3.21-8.74-2.05-2.19-5.02-3.47-8.58-3.47zm-511.9 0.07c-3.58 0-6.58 1.25-8.68 3.4s-3.28 5.2-3.32 8.74v14.12c0 3.64 1.2 6.73 3.31 8.89 2.11 2.17 5.11 3.39 8.62 3.39 6.73 0 11.55-4.75 11.93-11.68v-0.01-0.02c0-0.4-0.14-0.79-0.42-1.07-0.27-0.28-0.67-0.42-1.07-0.42h-4.25c-0.38 0-0.76 0.11-1.06 0.37-0.29 0.26-0.45 0.65-0.49 1.06v0.01l-0.01 0.01c-0.1 1.48-0.6 2.69-1.38 3.52-0.78 0.82-1.84 1.3-3.18 1.3-1.53 0-2.67-0.51-3.46-1.39-0.79-0.87-1.24-2.13-1.24-3.68v-3.19h4.77c7.09 0 12-4.82 12-11.42 0-6.89-5.04-12-12.07-11.93zm-23.3 0.58c-3.76 0-6.99 1.25-9.27 3.54s-3.59 5.6-3.59 9.61v22.53c0 0.43 0.12 0.85 0.42 1.14 0.29 0.29 0.71 0.42 1.14 0.42h4.17c0.43 0 0.84-0.13 1.14-0.42 0.29-0.29 0.42-0.71 0.42-1.14v-23.04c0-1.82 0.56-3.23 1.53-4.2 0.96-0.96 2.35-1.51 4.11-1.51h2.59c0.4 0 0.8-0.14 1.08-0.41 0.27-0.28 0.41-0.67 0.41-1.08v-3.88c0-0.43-0.13-0.84-0.4-1.13-0.28-0.29-0.69-0.43-1.09-0.43h-2.66zm365.7 0c-3.76 0-7 1.25-9.28 3.54s-3.59 5.6-3.59 9.61v22.53c0 0.43 0.13 0.85 0.43 1.14 0.29 0.29 0.7 0.42 1.13 0.42h4.18c0.42 0 0.84-0.13 1.13-0.42 0.3-0.29 0.42-0.71 0.42-1.14v-23.04c0-1.82 0.57-3.23 1.54-4.2 0.96-0.96 2.35-1.51 4.11-1.51h2.59c0.4 0 0.79-0.14 1.07-0.41 0.28-0.28 0.42-0.67 0.42-1.08v-3.88c0-0.43-0.13-0.84-0.41-1.13-0.27-0.29-0.68-0.43-1.08-0.43h-2.66zm-198.29 0.14c-0.42 0-0.83 0.13-1.13 0.4-0.29 0.28-0.43 0.69-0.43 1.09v34.05c0 0.43 0.13 0.85 0.43 1.14 0.29 0.29 0.71 0.42 1.13 0.42h4.18c0.42 0 0.84-0.13 1.13-0.42 0.3-0.29 0.42-0.71 0.42-1.14v-34.05c0-0.4-0.13-0.81-0.43-1.09-0.29-0.27-0.7-0.4-1.12-0.4h-4.18zm240.56 0c-0.43 0-0.83 0.13-1.12 0.4-0.3 0.28-0.44 0.69-0.44 1.09v34.05c0 0.43 0.13 0.85 0.42 1.14 0.3 0.29 0.71 0.42 1.14 0.42h4.18c0.42 0 0.84-0.13 1.13-0.42 0.3-0.29 0.42-0.71 0.42-1.14v-34.05c0-0.4-0.14-0.81-0.43-1.09-0.29-0.27-0.7-0.4-1.12-0.4h-4.18zm46.96 0c-0.43 0-0.84 0.13-1.13 0.4-0.29 0.28-0.43 0.69-0.43 1.09v34.05c0 0.43 0.13 0.85 0.42 1.14s0.71 0.42 1.14 0.42h4.17c0.43 0 0.84-0.13 1.14-0.42 0.29-0.29 0.42-0.71 0.42-1.14v-34.05c0-0.4-0.14-0.81-0.43-1.09-0.29-0.27-0.7-0.4-1.13-0.4h-4.17zm51.59 0c-0.42 0-0.83 0.13-1.12 0.4-0.29 0.28-0.44 0.69-0.44 1.09v34.05c0 0.43 0.13 0.85 0.43 1.14 0.29 0.29 0.71 0.42 1.13 0.42h4.18c0.42 0 0.84-0.13 1.14-0.42 0.29-0.29 0.42-0.71 0.42-1.14v-34.05c0-0.4-0.14-0.81-0.44-1.09-0.29-0.27-0.7-0.4-1.12-0.4h-4.18zm-483.22 6.21c1.53 0 2.7 0.5 3.5 1.38 0.81 0.87 1.28 2.14 1.28 3.76 0 1.4-0.44 2.52-1.22 3.3-0.79 0.79-1.94 1.26-3.49 1.26h-4.77v-4.56c0-1.63 0.43-2.9 1.21-3.77s1.92-1.37 3.49-1.37zm208.3 0c1.54 0 2.68 0.5 3.47 1.36 0.79 0.87 1.24 2.12 1.24 3.71v14.54c0 1.59-0.45 2.85-1.24 3.71s-1.93 1.36-3.47 1.36c-1.53 0-2.69-0.5-3.5-1.36-0.81-0.87-1.28-2.12-1.28-3.71v-14.54c0-1.58 0.47-2.84 1.28-3.7 0.81-0.87 1.97-1.37 3.5-1.37zm-174.63 14.98h4.63v4.71c0 1.55-0.43 2.77-1.2 3.6s-1.9 1.32-3.43 1.32c-1.57 0-2.75-0.51-3.57-1.38s-1.28-2.14-1.28-3.76c0-2.55 1.7-4.49 4.85-4.49zm273.04 0h4.63v4.71c0 1.55-0.43 2.77-1.2 3.6s-1.89 1.32-3.43 1.32c-1.57 0-2.75-0.51-3.57-1.38-0.81-0.87-1.28-2.14-1.28-3.76 0-2.55 1.71-4.49 4.85-4.49zm205.12 0h4.64v4.71c0 1.55-0.44 2.77-1.21 3.6s-1.89 1.32-3.43 1.32c-1.57 0-2.75-0.51-3.56-1.38-0.82-0.87-1.29-2.14-1.29-3.76 0-2.55 1.71-4.49 4.85-4.49zm-246.44 8.33c-0.38 0-0.77 0.09-1.08 0.36-0.3 0.26-0.48 0.68-0.48 1.13l-0.72 12.22v0.02c0 0.42 0.13 0.83 0.41 1.12 0.27 0.3 0.68 0.44 1.08 0.44h2.3c0.38 0 0.76-0.1 1.05-0.35 0.29-0.24 0.46-0.61 0.51-1l2.37-12.23v-0.02c0.05-0.43-0.05-0.87-0.32-1.2-0.28-0.32-0.71-0.49-1.16-0.49h-3.96zm59.09 56.93c-0.43 0-0.84 0.13-1.13 0.41-0.29 0.27-0.43 0.67-0.43 1.08v48.45c0 0.43 0.12 0.85 0.42 1.14 0.29 0.29 0.71 0.42 1.14 0.42h4.17c0.43 0 0.84-0.13 1.14-0.42 0.29-0.29 0.42-0.71 0.42-1.14v-48.45c0-0.41-0.14-0.81-0.43-1.08-0.3-0.28-0.7-0.41-1.13-0.41h-4.17zm20.1 0c-0.43 0-0.84 0.13-1.13 0.41-0.29 0.27-0.43 0.67-0.43 1.08v48.45c0 0.43 0.13 0.85 0.42 1.14 0.3 0.29 0.71 0.42 1.14 0.42h4.17c0.43 0 0.85-0.13 1.14-0.42s0.42-0.71 0.42-1.14v-48.45c0-0.41-0.14-0.81-0.43-1.08-0.29-0.28-0.7-0.41-1.13-0.41h-4.17zm-132.32 2.45c-2.43 0-4.22 1.88-4.22 4.29 0 2.36 1.79 4.23 4.22 4.23 2.39 0 4.29-1.97 4.29-4.23 0-2.44-1.92-4.29-4.29-4.29zm154.51 0c-2.43 0-4.22 1.88-4.22 4.29 0 2.36 1.79 4.23 4.22 4.23 2.39 0 4.29-1.97 4.29-4.23 0-2.44-1.93-4.29-4.29-4.29zm-100.39 1.66c-0.42 0-0.84 0.12-1.13 0.42-0.3 0.29-0.42 0.71-0.42 1.13v8.74h-3.49c-0.4 0-0.79 0.14-1.07 0.42-0.28 0.27-0.41 0.67-0.41 1.07v3.74c0 0.4 0.13 0.8 0.41 1.07 0.28 0.28 0.67 0.42 1.07 0.42h3.49v17.3c0 4.06 1.09 7.39 3.15 9.71s5.08 3.59 8.77 3.59h1.08c0.43 0 0.83-0.13 1.13-0.4 0.29-0.28 0.43-0.69 0.43-1.09v-3.96c0-0.4-0.14-0.8-0.43-1.08-0.3-0.28-0.7-0.4-1.13-0.4h-0.79c-1.72 0-2.91-0.51-3.72-1.52-0.82-1-1.27-2.58-1.27-4.77v-17.38h4.99c0.4 0 0.8-0.14 1.07-0.42 0.28-0.27 0.42-0.67 0.42-1.07v-3.74c0-0.4-0.14-0.8-0.42-1.07-0.27-0.28-0.67-0.42-1.07-0.42h-4.99v-8.74c0-0.42-0.13-0.83-0.41-1.12-0.27-0.29-0.68-0.43-1.08-0.43h-4.18zm-26.88 9.5c-6.96 0-11.78 5.2-11.78 12.29v24.04c0 0.43 0.13 0.85 0.42 1.14s0.71 0.42 1.14 0.42h4.17c0.43 0 0.84-0.13 1.14-0.42 0.29-0.29 0.42-0.71 0.42-1.14v-24.26c0-1.59 0.44-2.88 1.2-3.75 0.76-0.88 1.84-1.39 3.29-1.39s2.53 0.51 3.29 1.39c0.76 0.87 1.2 2.16 1.2 3.75v24.26c0 0.43 0.13 0.85 0.42 1.14 0.3 0.29 0.71 0.42 1.14 0.42h4.18c0.42 0 0.84-0.13 1.13-0.42s0.42-0.71 0.42-1.14v-24.04c0-7.09-4.82-12.29-11.78-12.29zm153.66 0c-7.17 0-12.07 5.2-12.07 12.29v12.38c0 7.09 4.88 12.29 11.56 12.29 1.98 0 3.73-0.82 5.22-2.02v6.07c0 1.67-0.46 2.92-1.24 3.76-0.79 0.84-1.93 1.31-3.47 1.31-1.43 0-2.51-0.46-3.3-1.32-0.8-0.85-1.31-2.14-1.41-3.85v-0.01-0.01c-0.04-0.45-0.19-0.84-0.48-1.12-0.3-0.28-0.7-0.39-1.07-0.39h-4.25c-0.43 0-0.85 0.13-1.14 0.44-0.29 0.3-0.39 0.74-0.34 1.17 0.15 3.63 1.38 6.66 3.47 8.78 2.1 2.13 5.05 3.31 8.52 3.31 3.61 0 6.64-1.2 8.74-3.36 2.1-2.15 3.26-5.24 3.26-8.92v-28.51c0-7.09-4.9-12.29-12-12.29zm69.04 0c-6.96 0-11.78 5.2-11.78 12.29v24.04c0 0.43 0.13 0.85 0.42 1.14s0.71 0.42 1.14 0.42h4.17c0.43 0 0.84-0.13 1.14-0.42 0.29-0.29 0.42-0.71 0.42-1.14v-24.26c0-1.59 0.44-2.88 1.2-3.75 0.76-0.88 1.84-1.39 3.29-1.39s2.53 0.51 3.29 1.39c0.76 0.87 1.2 2.16 1.2 3.75v24.26c0 0.43 0.13 0.85 0.42 1.14 0.3 0.29 0.71 0.42 1.14 0.42h4.17c0.43 0 0.85-0.13 1.14-0.42s0.42-0.71 0.42-1.14v-24.04c0-7.09-4.82-12.29-11.78-12.29zm34.65 0c-7.04 0-11.86 5.2-11.86 12.29v14.11c0 7.09 4.9 12.28 12 12.28 3.41 0 6.3-1.23 8.38-3.35 2.07-2.12 3.32-5.11 3.55-8.61v-0.02-0.01c0-0.46-0.12-0.87-0.4-1.18-0.27-0.31-0.69-0.45-1.09-0.45h-4.32c-0.38 0-0.78 0.11-1.06 0.4-0.27 0.29-0.38 0.67-0.42 1.1v0.01c-0.14 1.67-0.66 2.95-1.46 3.8-0.79 0.85-1.87 1.31-3.25 1.31-1.5 0-2.62-0.5-3.4-1.36s-1.24-2.12-1.24-3.71v-14.54c0-1.59 0.46-2.85 1.23-3.71 0.78-0.86 1.88-1.36 3.34-1.36 1.36 0 2.38 0.42 3.12 1.18 0.75 0.76 1.23 1.91 1.37 3.44v0.01c0.05 0.41 0.2 0.79 0.49 1.06 0.3 0.26 0.69 0.36 1.07 0.36h4.24c0.43 0 0.84-0.12 1.13-0.41s0.4-0.72 0.35-1.14c-0.23-3.37-1.46-6.25-3.5-8.29-2.05-2.04-4.91-3.21-8.27-3.21zm-196.84 0.07c-3.58 0-6.58 1.25-8.67 3.4-2.1 2.15-3.28 5.2-3.32 8.74v14.12c0 3.64 1.2 6.73 3.31 8.89 2.1 2.17 5.11 3.39 8.62 3.39 6.73 0 11.55-4.75 11.92-11.68v-0.01-0.02c0-0.4-0.13-0.79-0.41-1.07s-0.67-0.41-1.07-0.41h-4.25c-0.38 0-0.77 0.1-1.06 0.36s-0.45 0.65-0.5 1.06v0.01 0.01c-0.1 1.48-0.6 2.69-1.38 3.52s-1.84 1.3-3.18 1.3c-1.53 0-2.67-0.52-3.46-1.39-0.8-0.87-1.25-2.13-1.25-3.68v-3.19h4.78c7.08 0 12-4.82 12-11.42 0-6.89-5.04-12-12.07-11.93h-0.01zm128.08 0c-3.58 0-6.58 1.25-8.68 3.4-2.09 2.15-3.27 5.2-3.31 8.74v14.12c0 3.64 1.2 6.73 3.3 8.89 2.11 2.17 5.11 3.39 8.62 3.39 6.74 0 11.56-4.75 11.93-11.68v-0.01-0.02c0-0.4-0.14-0.79-0.41-1.07-0.28-0.28-0.67-0.41-1.07-0.41h-4.25c-0.38 0-0.77 0.1-1.06 0.36-0.3 0.26-0.45 0.65-0.5 1.06v0.01 0.01c-0.1 1.48-0.6 2.69-1.38 3.52s-1.84 1.3-3.18 1.3c-1.53 0-2.67-0.52-3.47-1.39-0.79-0.87-1.24-2.13-1.24-3.68v-3.19h4.78c7.08 0 12-4.82 12-11.42 0-6.89-5.05-12-12.07-11.93h-0.01zm102.36 0c-3.58 0-6.58 1.25-8.68 3.4s-3.28 5.2-3.31 8.74v14.12c0 3.64 1.19 6.73 3.3 8.89 2.11 2.17 5.11 3.39 8.62 3.39 6.73 0 11.55-4.75 11.93-11.68v-0.01-0.02c0-0.4-0.14-0.79-0.41-1.07-0.28-0.28-0.68-0.41-1.08-0.41h-4.25c-0.38 0-0.76 0.1-1.06 0.36-0.29 0.26-0.45 0.65-0.49 1.06v0.01 0.01c-0.1 1.48-0.6 2.69-1.38 3.52s-1.84 1.3-3.19 1.3c-1.52 0-2.67-0.52-3.46-1.39s-1.24-2.13-1.24-3.68v-3.19h4.78c7.08 0 11.99-4.82 11.99-11.42 0-6.89-5.04-12-12.07-11.93zm-320.28 0.72c-0.42 0-0.83 0.13-1.12 0.41-0.3 0.27-0.44 0.68-0.44 1.08v34.05c0 0.43 0.13 0.85 0.43 1.14 0.29 0.29 0.71 0.42 1.13 0.42h4.18c0.42 0 0.84-0.13 1.13-0.42 0.3-0.29 0.42-0.71 0.42-1.14v-34.05c0-0.4-0.13-0.81-0.43-1.08-0.29-0.28-0.7-0.41-1.12-0.41h-4.18zm154.51 0c-0.43 0-0.83 0.13-1.12 0.41-0.3 0.27-0.44 0.68-0.44 1.08v34.05c0 0.43 0.13 0.85 0.43 1.14 0.29 0.29 0.7 0.42 1.13 0.42h4.18c0.42 0 0.84-0.13 1.13-0.42 0.3-0.29 0.42-0.71 0.42-1.14v-34.05c0-0.4-0.13-0.81-0.43-1.08-0.29-0.28-0.7-0.41-1.12-0.41h-4.18zm-64.66 6.21c1.53 0 2.69 0.5 3.5 1.38 0.81 0.87 1.28 2.14 1.28 3.76 0 1.4-0.44 2.52-1.23 3.3-0.78 0.79-1.94 1.26-3.48 1.26h-4.78v-4.56c0-1.63 0.44-2.9 1.22-3.77s1.92-1.37 3.49-1.37zm93.14 0c1.53 0 2.67 0.5 3.46 1.37 0.79 0.86 1.25 2.11 1.25 3.7v12.82c0 1.58-0.46 2.86-1.25 3.74s-1.93 1.39-3.46 1.39-2.69-0.51-3.5-1.39-1.28-2.16-1.28-3.74v-12.82c0-1.58 0.47-2.84 1.27-3.7 0.81-0.86 1.98-1.37 3.51-1.37zm34.94 0c1.53 0 2.69 0.5 3.5 1.38 0.81 0.87 1.28 2.14 1.28 3.76 0 1.4-0.44 2.52-1.23 3.3-0.79 0.79-1.94 1.26-3.48 1.26h-4.78v-4.56c0-1.63 0.44-2.9 1.22-3.77s1.92-1.37 3.49-1.37zm102.35 0c1.54 0 2.7 0.5 3.51 1.38 0.8 0.87 1.27 2.14 1.27 3.76 0 1.4-0.44 2.52-1.22 3.3-0.79 0.79-1.94 1.26-3.48 1.26h-4.78v-4.56c0-1.63 0.44-2.9 1.22-3.77s1.91-1.37 3.48-1.37zm-471.19 2.13h0.01c-0.34-0.01-0.8 0-1.04 0.02-0.23 0.03-0.6 0.09-0.82 0.14s-0.59 0.15-0.82 0.22-0.65 0.23-0.92 0.36-0.72 0.38-1 0.57c-0.29 0.19-0.7 0.5-0.93 0.69-0.22 0.19-0.57 0.55-0.77 0.79s-0.51 0.64-0.67 0.89c-0.17 0.25-0.42 0.69-0.57 0.99-0.14 0.29-0.34 0.79-0.44 1.1-0.1 0.3-0.23 0.79-0.29 1.08-0.06 0.28-0.13 0.85-0.17 1.27-0.04 0.58-0.04 0.94 0 1.5 0.04 0.41 0.11 1 0.17 1.31s0.2 0.85 0.32 1.2c0.11 0.35 0.36 0.95 0.55 1.33s0.51 0.91 0.71 1.19c0.19 0.27 0.6 0.75 0.91 1.06s0.75 0.69 0.99 0.86c0.23 0.17 0.65 0.43 0.92 0.57 0.28 0.14 0.67 0.32 0.87 0.4 0.2 0.07 0.61 0.19 0.9 0.26s0.74 0.15 1 0.18c0.25 0.03 0.48 0.06 0.49 0.07s-0.66 6.2-1.5 13.75c-0.83 7.54-1.52 13.73-1.52 13.73-0.01 0.01-0.5-0.29-1.1-0.68-0.59-0.38-1.54-0.99-2.11-1.34-0.57-0.36-1.55-0.96-2.17-1.34-0.63-0.38-1.92-1.13-2.86-1.67-0.95-0.54-2.17-1.22-2.71-1.51s-1.56-0.84-2.28-1.21c-0.71-0.37-1.94-0.99-2.73-1.38-0.78-0.38-1.82-0.88-2.3-1.11-0.48-0.22-1.33-0.61-1.88-0.86-0.56-0.25-1.59-0.69-2.29-0.99s-1.9-0.8-2.67-1.11c-0.77-0.3-1.8-0.7-2.28-0.88s-1.21-0.45-1.62-0.6c-0.4-0.14-1.32-0.46-2.04-0.7-0.72-0.25-1.85-0.61-2.52-0.82s-1.87-0.57-2.68-0.8-2.13-0.58-2.94-0.78c-0.81-0.21-1.96-0.48-2.56-0.61s-1.58-0.34-2.17-0.46c-0.6-0.12-1.64-0.31-2.31-0.42-0.68-0.12-1.74-0.28-2.36-0.37-0.63-0.09-1.67-0.22-2.33-0.29-0.66-0.08-1.65-0.17-2.2-0.22-0.55-0.04-1.46-0.1-2.01-0.14-0.57-0.04-2.13-0.07-3.58-0.07-1.52 0-2.97 0.03-3.55 0.07-0.54 0.04-1.38 0.1-1.86 0.14-0.48 0.05-1.34 0.14-1.9 0.21-0.57 0.08-1.46 0.21-1.98 0.3-0.51 0.08-1.29 0.23-1.72 0.31-0.43 0.09-1.25 0.28-1.82 0.42-0.56 0.15-1.43 0.38-1.91 0.53-0.49 0.15-1.3 0.41-1.8 0.6-0.51 0.18-1.29 0.48-1.75 0.66-0.45 0.19-1.14 0.5-1.55 0.69-0.4 0.19-1.04 0.51-1.43 0.72-0.38 0.2-0.96 0.52-1.28 0.71s-0.92 0.57-1.33 0.84-1.02 0.7-1.37 0.97c-0.35 0.26-0.95 0.73-1.33 1.05-0.38 0.31-1.16 1.04-1.72 1.61-0.57 0.57-1.29 1.33-1.59 1.69-0.3 0.37-0.74 0.93-0.99 1.25-0.24 0.32-0.63 0.89-0.87 1.25-0.25 0.37-0.61 0.95-0.81 1.3l-0.37 0.63-0.51-0.01c-0.28-0.01-5.07 0.22-10.66 0.51-5.58 0.29-10.24 0.56-10.36 0.59s-0.31 0.12-0.43 0.19c-0.11 0.06-0.31 0.23-0.44 0.36-0.12 0.14-0.27 0.35-0.33 0.48-0.05 0.13-0.12 0.41-0.15 0.62-0.03 0.24-0.05 5.63-0.05 13.75 0 8.97 0.01 13.5 0.05 13.8 0.04 0.29 0.11 0.57 0.21 0.78 0.08 0.18 0.25 0.44 0.38 0.57 0.12 0.14 0.36 0.31 0.56 0.41 0.3 0.15 0.41 0.17 0.73 0.17 0.29 0 0.44-0.03 0.67-0.14 0.17-0.08 0.41-0.24 0.52-0.37 0.12-0.12 4.89-6.58 10.61-14.35s10.46-14.26 10.53-14.42c0.08-0.17 0.15-0.43 0.17-0.63 0.01-0.19 0.01-0.47-0.01-0.61-0.02-0.15-0.12-0.42-0.21-0.61l-0.17-0.34 0.18-0.34c0.1-0.19 0.38-0.66 0.62-1.04 0.25-0.38 0.62-0.95 0.84-1.26s0.62-0.84 0.89-1.17c0.26-0.34 0.77-0.93 1.12-1.31 0.35-0.39 0.98-1.03 1.4-1.42 0.43-0.39 1.13-1 1.56-1.35s1.03-0.8 1.32-1c0.29-0.21 0.82-0.56 1.17-0.79 0.35-0.22 0.89-0.55 1.2-0.73 0.31-0.17 0.99-0.54 1.51-0.8 0.53-0.26 1.18-0.58 1.46-0.7s0.8-0.34 1.17-0.48c0.36-0.15 1.05-0.41 1.54-0.58s1.25-0.42 1.7-0.55c0.44-0.13 1.14-0.32 1.55-0.42s1.07-0.26 1.46-0.35c0.4-0.08 1.21-0.24 1.81-0.34 0.59-0.1 1.42-0.23 1.85-0.29 0.42-0.06 1.26-0.16 1.88-0.21 0.61-0.06 1.55-0.14 2.09-0.18 0.58-0.04 2.02-0.06 3.5-0.06 1.38 0 2.98 0.03 3.55 0.06 0.57 0.04 1.46 0.1 1.99 0.15 0.52 0.04 1.49 0.14 2.14 0.21 0.66 0.07 1.63 0.19 2.15 0.27 0.52 0.07 1.45 0.21 2.07 0.31 0.61 0.1 1.61 0.28 2.22 0.4 0.62 0.12 1.71 0.35 2.44 0.51s1.95 0.44 2.7 0.63c0.76 0.2 1.97 0.52 2.68 0.72s1.69 0.49 2.17 0.63c0.48 0.15 1.5 0.47 2.26 0.72 0.75 0.25 1.86 0.63 2.46 0.84s1.62 0.59 2.28 0.84 1.68 0.64 2.28 0.89c0.59 0.24 1.64 0.67 2.33 0.96 0.68 0.29 1.85 0.81 2.6 1.14 0.74 0.34 2.16 1 3.15 1.48s2.48 1.22 3.31 1.66c0.83 0.43 1.89 0.99 2.36 1.25 0.47 0.25 1.25 0.69 1.75 0.96 0.5 0.28 1.47 0.84 2.17 1.25s1.76 1.04 2.36 1.41c0.6 0.36 1.58 0.97 2.17 1.35 0.6 0.38 1.5 0.96 2.01 1.29 0.8 0.52 0.91 0.61 0.91 0.74 0 0.08-0.3 2.85-0.66 6.16-0.37 3.31-0.68 6.13-0.7 6.26l-0.03 0.23-0.51-0.04c-0.28-0.01-0.99-0.07-1.57-0.11-0.59-0.04-1.9-0.12-2.92-0.18s-2.44-0.13-3.15-0.16c-0.72-0.03-2.13-0.08-3.15-0.11s-3.27-0.05-4.99-0.05-3.95 0.02-4.95 0.05c-1.01 0.03-2.57 0.09-3.47 0.13-0.91 0.05-2.18 0.12-2.84 0.16-0.65 0.05-1.78 0.13-2.49 0.19s-1.76 0.15-2.33 0.21-1.64 0.18-2.39 0.27c-0.74 0.08-2.01 0.25-2.83 0.37-0.82 0.11-2.11 0.31-2.86 0.44-0.76 0.13-1.91 0.35-2.55 0.48s-1.45 0.29-1.8 0.37-1.2 0.28-1.89 0.45-1.68 0.44-2.2 0.58c-0.52 0.15-1.55 0.48-2.29 0.73-0.74 0.24-1.8 0.62-2.34 0.84-0.54 0.21-1.31 0.54-1.7 0.72-0.39 0.17-1.01 0.48-1.37 0.67-0.37 0.19-0.92 0.5-1.23 0.68-0.31 0.19-0.81 0.51-1.11 0.72s-0.66 0.47-0.81 0.58c-0.2 0.16-0.27 0.19-0.37 0.16-0.06-0.03-3.07-1.17-6.68-2.55-3.62-1.38-6.6-2.52-6.63-2.55-0.02-0.02-0.1-0.05-0.17-0.05s-0.19 0.04-0.27 0.08-0.22 0.16-0.32 0.26c-0.16 0.17-0.55 1.23-3.75 10.25-1.97 5.53-3.61 10.18-3.64 10.33-0.04 0.2-0.04 0.34 0.01 0.56 0.04 0.17 0.13 0.36 0.23 0.48 0.08 0.11 0.26 0.25 0.38 0.32 0.16 0.08 0.31 0.11 0.59 0.11h0.37l11.69-6.82c6.42-3.76 11.77-6.89 11.88-6.96s0.27-0.22 0.36-0.34c0.08-0.12 0.18-0.35 0.21-0.5 0.04-0.21 0.04-0.34 0-0.51-0.04-0.13-0.12-0.31-0.19-0.41-0.08-0.09-0.22-0.21-0.33-0.27-0.11-0.05-0.63-0.26-1.16-0.46-0.53-0.19-0.97-0.37-0.97-0.39s0.29-0.21 0.63-0.44c0.35-0.23 0.91-0.57 1.24-0.75 0.33-0.19 0.82-0.45 1.08-0.58s0.78-0.37 1.16-0.54 1.04-0.44 1.47-0.62c0.44-0.17 1.39-0.51 2.12-0.76 0.74-0.24 1.75-0.56 2.26-0.71 0.51-0.14 1.46-0.39 2.1-0.55s1.65-0.4 2.25-0.53 1.66-0.35 2.36-0.48 1.63-0.3 2.07-0.37c0.43-0.07 1.28-0.2 1.88-0.29 0.59-0.09 1.64-0.24 2.33-0.32 0.68-0.09 1.58-0.2 1.99-0.24 0.4-0.05 1.36-0.14 2.12-0.21 0.75-0.08 2.02-0.18 2.8-0.24 0.79-0.06 2.1-0.14 2.92-0.19 0.82-0.04 2.04-0.1 2.73-0.14 0.68-0.03 3.02-0.06 5.19-0.08 2.5-0.02 4.79-0.01 6.23 0.03 1.25 0.03 3.03 0.09 3.95 0.14 0.92 0.04 2.1 0.1 2.62 0.13 0.53 0.03 1.8 0.11 2.84 0.19 1.03 0.07 2.06 0.15 2.28 0.18 0.32 0.03 1.87 0.56 8.66 2.96 4.55 1.61 8.29 2.95 8.3 2.97 0.02 0.02-0.12 2.14-0.31 4.72l-0.35 4.68-0.4-0.03c-0.22-0.02-1.09-0.08-1.94-0.14-0.84-0.06-2.19-0.14-2.99-0.19-0.8-0.04-2.25-0.11-3.21-0.15-0.96-0.05-2.8-0.11-4.09-0.14-1.49-0.04-4.04-0.06-6.95-0.04-2.94 0.02-5.22 0.06-6.34 0.11-0.96 0.05-2.18 0.11-2.71 0.14-0.52 0.03-1.59 0.11-2.38 0.16-0.79 0.06-1.81 0.15-2.28 0.19-0.46 0.05-1.4 0.14-2.07 0.21-0.67 0.08-1.82 0.22-2.57 0.32-0.74 0.1-1.85 0.27-2.46 0.37-0.61 0.11-1.59 0.29-2.17 0.4-0.59 0.12-1.49 0.32-2.02 0.45-0.53 0.12-1.29 0.32-1.7 0.44-0.4 0.12-1.08 0.33-1.5 0.48-0.43 0.14-1.04 0.36-1.36 0.5-0.33 0.13-0.87 0.38-1.22 0.55-0.35 0.18-0.89 0.49-1.2 0.7-0.32 0.2-0.78 0.57-1.03 0.81s-0.57 0.62-0.72 0.85l-0.27 0.4-0.61-0.52c-0.34-0.28-1.42-1.2-2.39-2.03-0.98-0.84-1.85-1.57-1.94-1.61-0.08-0.05-0.32-0.1-0.51-0.11-0.21-0.02-0.46 0-0.59 0.04-0.13 0.03-0.35 0.15-0.49 0.26-0.14 0.1-0.32 0.29-0.4 0.4-0.08 0.12-2.87 4.18-6.2 9.04-3.33 4.85-6.12 8.91-6.2 9.01s-0.2 0.29-0.26 0.43c-0.06 0.13-0.12 0.37-0.14 0.53-0.02 0.21 0 0.38 0.06 0.6 0.06 0.2 0.16 0.38 0.3 0.53 0.12 0.13 0.32 0.29 0.45 0.35 0.19 0.09 0.3 0.11 0.57 0.09l0.34-0.02 11.25-4.68 11.26-4.69 0.42-0.43c0.31-0.3 0.48-0.52 0.61-0.79 0.15-0.31 0.18-0.43 0.2-0.82l0.02-0.46-0.15-0.29-0.15-0.29-2.15-1.79c-1.18-0.98-2.15-1.83-2.16-1.87-0.01-0.05 0.05-0.22 0.13-0.38 0.09-0.18 0.31-0.47 0.55-0.7 0.22-0.22 0.62-0.55 0.9-0.74 0.28-0.18 0.78-0.47 1.12-0.65 0.35-0.17 0.92-0.42 1.28-0.57 0.36-0.14 1.02-0.38 1.47-0.52 0.45-0.15 1.13-0.35 1.51-0.46 0.39-0.1 1.1-0.28 1.59-0.4 0.5-0.11 1.39-0.3 1.99-0.42 0.6-0.11 1.69-0.3 2.44-0.42 0.74-0.12 1.92-0.29 2.62-0.38 0.7-0.08 1.72-0.2 2.28-0.26 0.55-0.06 1.42-0.14 1.93-0.19 0.51-0.04 1.42-0.11 2.02-0.16 0.6-0.04 1.5-0.1 2.01-0.13s1.72-0.09 2.68-0.14c1.13-0.05 3.37-0.09 6.35-0.11 2.91-0.02 5.45-0.01 6.91 0.03 1.28 0.03 3.12 0.1 4.09 0.14 0.98 0.04 2.42 0.12 3.21 0.16s1.97 0.12 2.62 0.16c0.66 0.04 1.64 0.11 2.18 0.16l0.98 0.08 6.75 2.67c3.71 1.47 6.76 2.69 6.77 2.7s-0.1 2.47-0.24 5.47c-0.15 3-0.25 5.46-0.23 5.48s2.52 0.49 5.55 1.06c3.03 0.56 5.58 1.03 5.66 1.04l0.14 0.03 0.02 1.83 0.01 1.83 5.57 1.72 5.56 1.72 0.26 0.26c0.14 0.14 0.33 0.28 0.42 0.31s4.19 1.12 9.1 2.42 8.99 2.38 9.07 2.39c0.09 0.02 0.18-0.01 0.25-0.08 0.08-0.09 0.11-0.18 0.11-0.37 0-0.15-0.04-0.31-0.1-0.42-0.06-0.09-2.28-2.45-4.94-5.25-2.66-2.79-5.09-5.35-5.42-5.68-0.34-0.35-0.68-0.64-0.8-0.7-0.12-0.05-0.28-0.1-0.37-0.1-0.13 0-0.45 0.24-1.72 1.28-0.86 0.7-2.46 2.03-3.56 2.94-1.1 0.92-2.03 1.67-2.06 1.66-0.04 0-2.19-0.65-4.79-1.45-2.6-0.81-4.84-1.5-4.98-1.55l-0.25-0.08-0.01-1.89-0.02-1.88-5.67-1.06c-3.11-0.58-5.67-1.06-5.68-1.07-0.01 0 0.09-2.2 0.22-4.88s0.25-5.04 0.27-5.24 0.29-2.88 0.61-5.94 0.6-5.61 0.61-5.67l0.02-0.12 0.73-0.02c0.49-0.02 0.87-0.07 1.14-0.14 0.22-0.06 0.58-0.18 0.8-0.27s0.58-0.29 0.81-0.44 0.65-0.5 0.93-0.78 0.63-0.69 0.79-0.93c0.15-0.23 0.38-0.63 0.51-0.9 0.12-0.26 0.28-0.66 0.35-0.88 0.08-0.22 0.18-0.6 0.23-0.85 0.08-0.35 0.1-0.66 0.1-1.5v-1.06l-0.14-0.52c-0.08-0.29-0.25-0.75-0.38-1.02-0.13-0.28-0.37-0.69-0.52-0.91-0.16-0.23-0.47-0.61-0.71-0.84-0.23-0.23-0.6-0.55-0.82-0.7s-0.59-0.37-0.82-0.49c-0.24-0.11-0.64-0.28-0.9-0.37s-0.69-0.2-0.95-0.24c-0.27-0.05-0.77-0.08-1.19-0.08-0.43 0-0.87 0.03-1.09 0.08-0.21 0.04-0.53 0.13-0.72 0.19s-0.53 0.2-0.77 0.32c-0.23 0.12-0.57 0.32-0.76 0.45-0.18 0.13-0.49 0.39-0.67 0.56-0.19 0.18-0.5 0.53-0.69 0.78s-0.46 0.69-0.6 0.98c-0.15 0.29-0.32 0.73-0.4 0.97-0.07 0.24-0.17 0.71-0.22 1.06-0.08 0.53-0.08 0.74-0.03 1.5 0.04 0.6 0.1 1.03 0.19 1.39 0.07 0.29 0.24 0.74 0.37 1.02s0.36 0.69 0.52 0.91c0.15 0.23 0.46 0.59 0.68 0.81 0.21 0.22 0.57 0.53 0.79 0.68 0.22 0.16 0.6 0.39 0.85 0.51 0.25 0.13 0.64 0.3 0.87 0.38l0.41 0.15-0.03 0.19c-0.01 0.1-0.27 2.5-0.57 5.34s-0.56 5.18-0.57 5.21c-0.02 0.02-2.9-1.09-6.39-2.47-3.5-1.39-6.36-2.53-6.37-2.53 0-0.01 0.14-2.04 0.33-4.52 0.19-2.47 0.37-4.85 0.4-5.27s0.24-4.33 0.47-8.69 0.44-8.09 0.45-8.3l0.04-0.37h0.93c0.57 0 1.07-0.03 1.26-0.07 0.17-0.04 0.52-0.13 0.77-0.2 0.24-0.08 0.64-0.23 0.88-0.34 0.24-0.12 0.64-0.35 0.9-0.52s0.67-0.5 0.91-0.72c0.24-0.23 0.62-0.66 0.86-0.97 0.23-0.32 0.55-0.82 0.71-1.15 0.16-0.32 0.35-0.78 0.42-1.03 0.08-0.24 0.18-0.67 0.22-0.95 0.07-0.38 0.08-0.72 0.06-1.28-0.02-0.47-0.07-0.95-0.13-1.25-0.06-0.26-0.18-0.69-0.28-0.95-0.09-0.26-0.23-0.6-0.3-0.74-0.07-0.15-0.22-0.41-0.32-0.59-0.1-0.17-0.34-0.51-0.52-0.74-0.19-0.24-0.52-0.61-0.75-0.82-0.22-0.21-0.63-0.52-0.89-0.7-0.26-0.17-0.67-0.4-0.9-0.52-0.23-0.11-0.61-0.26-0.84-0.34-0.23-0.07-0.66-0.19-0.96-0.25-0.39-0.08-0.73-0.12-1.27-0.12s-0.87 0.03-1.19 0.1c-0.25 0.05-0.63 0.15-0.85 0.22s-0.65 0.25-0.94 0.39c-0.3 0.14-0.77 0.41-1.04 0.59-0.27 0.19-0.74 0.59-1.05 0.89-0.35 0.36-0.69 0.76-0.91 1.09-0.19 0.3-0.44 0.72-0.53 0.93-0.1 0.22-0.25 0.58-0.32 0.8s-0.17 0.65-0.22 0.95c-0.07 0.42-0.09 0.72-0.07 1.29 0.02 0.44 0.08 0.95 0.14 1.23 0.06 0.26 0.18 0.69 0.27 0.95 0.1 0.26 0.23 0.6 0.31 0.74 0.07 0.15 0.21 0.41 0.32 0.59 0.1 0.17 0.33 0.5 0.52 0.74 0.18 0.23 0.45 0.54 0.61 0.69s0.42 0.38 0.6 0.52c0.17 0.14 0.51 0.37 0.75 0.51 0.23 0.14 0.59 0.33 0.79 0.41 0.2 0.09 0.45 0.19 0.55 0.23l0.18 0.07-0.03 0.45c-0.02 0.25-0.22 3.91-0.44 8.14-0.23 4.23-0.43 7.71-0.45 7.73s-3.02-1.01-6.66-2.3c-3.64-1.28-7.14-2.52-7.78-2.75s-1.22-0.43-1.29-0.45c-0.08-0.03-0.11-0.08-0.11-0.16 0-0.07 1.03-9.53 2.3-21.03 1.27-11.49 2.32-20.92 2.33-20.95s0.18-0.09 0.38-0.12c0.2-0.04 0.6-0.14 0.89-0.23s0.73-0.25 0.98-0.37 0.72-0.39 1.05-0.61 0.81-0.6 1.07-0.84c0.26-0.25 0.6-0.61 0.76-0.81s0.42-0.54 0.57-0.77 0.41-0.7 0.58-1.06c0.18-0.36 0.39-0.87 0.48-1.14s0.21-0.73 0.27-1.01c0.05-0.28 0.13-0.83 0.16-1.23 0.05-0.55 0.05-0.9 0-1.42-0.03-0.39-0.11-0.95-0.17-1.24-0.06-0.3-0.2-0.83-0.32-1.18-0.11-0.35-0.34-0.9-0.5-1.22-0.15-0.32-0.42-0.78-0.58-1.03-0.17-0.25-0.47-0.65-0.67-0.88-0.2-0.24-0.54-0.6-0.75-0.79-0.22-0.19-0.58-0.49-0.82-0.66s-0.67-0.43-0.96-0.58-0.77-0.35-1.07-0.45c-0.31-0.1-0.77-0.22-1.03-0.27-0.26-0.04-0.75-0.09-1.09-0.1zm0.02 1.32c0.31 0.02 0.74 0.07 0.95 0.11 0.22 0.04 0.54 0.13 0.73 0.19s0.56 0.22 0.82 0.35c0.27 0.13 0.63 0.34 0.8 0.47 0.18 0.12 0.48 0.36 0.67 0.52s0.5 0.47 0.69 0.7 0.48 0.62 0.64 0.87c0.16 0.24 0.36 0.59 0.45 0.76 0.09 0.18 0.25 0.56 0.36 0.85 0.11 0.3 0.25 0.78 0.32 1.09s0.15 0.82 0.19 1.14c0.03 0.35 0.04 0.82 0.02 1.16-0.02 0.33-0.08 0.84-0.14 1.14s-0.18 0.76-0.27 1.03-0.28 0.72-0.42 1c-0.14 0.29-0.41 0.74-0.59 1.01s-0.56 0.72-0.84 1c-0.3 0.29-0.73 0.65-1.04 0.86-0.28 0.19-0.7 0.43-0.93 0.53-0.22 0.1-0.6 0.25-0.85 0.32-0.24 0.07-0.58 0.16-0.75 0.18-0.18 0.03-0.51 0.07-0.75 0.09-0.23 0.02-0.67 0.01-0.98-0.02-0.31-0.04-0.78-0.12-1.06-0.19-0.27-0.08-0.76-0.27-1.08-0.42-0.33-0.16-0.78-0.43-1.01-0.6s-0.61-0.5-0.83-0.73c-0.23-0.24-0.56-0.63-0.74-0.88-0.18-0.24-0.46-0.73-0.63-1.08s-0.37-0.84-0.45-1.09c-0.07-0.25-0.19-0.66-0.24-0.93-0.06-0.26-0.13-0.79-0.16-1.17-0.05-0.55-0.05-0.87 0-1.41 0.03-0.39 0.1-0.91 0.16-1.16 0.05-0.25 0.16-0.64 0.24-0.87s0.24-0.64 0.37-0.9 0.36-0.67 0.51-0.9c0.16-0.23 0.55-0.69 0.87-1.01 0.37-0.38 0.76-0.71 1.07-0.91 0.26-0.17 0.71-0.41 0.99-0.54 0.28-0.12 0.74-0.28 1.02-0.35s0.69-0.15 0.91-0.18c0.23-0.03 0.67-0.04 0.98-0.03zm-95.5 41.1l0.17 0.17c0.1 0.1 0.2 0.27 0.23 0.39 0.04 0.14 0.04 0.27 0.01 0.4-0.04 0.13-3.64 5.08-10.46 14.34-5.72 7.78-10.47 14.19-10.54 14.24l-0.14 0.11-0.19-0.09c-0.11-0.05-0.22-0.17-0.29-0.3l-0.12-0.21v-27.68l0.15-0.15c0.12-0.12 0.21-0.16 0.49-0.18 0.18-0.02 1.3-0.08 2.48-0.14 1.19-0.06 3.51-0.18 5.17-0.26 1.66-0.09 4.2-0.22 5.65-0.3 1.44-0.07 3.41-0.18 4.37-0.23s2.03-0.1 2.38-0.1h0.01l0.63-0.01zm123.24 17.23c0.49 0 0.82 0.03 1.15 0.1 0.25 0.06 0.62 0.16 0.82 0.24s0.55 0.26 0.78 0.39 0.61 0.42 0.84 0.64 0.52 0.54 0.65 0.71c0.12 0.18 0.31 0.5 0.42 0.71 0.1 0.21 0.24 0.57 0.31 0.79 0.1 0.37 0.12 0.53 0.11 1.4v0.98l-0.14 0.53c-0.09 0.29-0.25 0.75-0.38 1.01-0.13 0.27-0.32 0.63-0.44 0.8s-0.33 0.44-0.47 0.59c-0.14 0.16-0.41 0.4-0.6 0.55-0.19 0.14-0.52 0.34-0.73 0.44-0.2 0.1-0.56 0.23-0.78 0.29-0.31 0.08-0.59 0.11-1.06 0.11-0.42 0-0.81-0.04-1.12-0.1-0.26-0.06-0.64-0.17-0.85-0.25-0.2-0.08-0.56-0.25-0.79-0.39-0.23-0.13-0.6-0.42-0.83-0.64-0.23-0.21-0.53-0.54-0.65-0.71-0.13-0.18-0.32-0.5-0.43-0.72-0.11-0.21-0.25-0.62-0.33-0.9-0.11-0.44-0.13-0.63-0.13-1.46l-0.01-0.95 0.14-0.53c0.08-0.29 0.25-0.75 0.38-1.01s0.39-0.67 0.58-0.9 0.49-0.55 0.68-0.7c0.18-0.15 0.45-0.34 0.6-0.43 0.14-0.09 0.4-0.21 0.56-0.28 0.16-0.06 0.45-0.16 0.66-0.21 0.26-0.07 0.56-0.1 1.06-0.1zm415.91 3.17c-3.19 0-5.76 2.51-5.99 5.64h-2.02v3.07h1.93v12.66h3.21v-12.66h3.85v-3.07h-3.66c0.24-1.35 1.24-2.4 2.68-2.4h0.98v-3.24h-0.98zm-331.55 0.13c-1.05 0-1.96 0.91-1.96 1.96 0 1.04 0.91 1.95 1.96 1.95 1.04 0 1.95-0.91 1.95-1.95 0-1.05-0.91-1.96-1.95-1.96zm57.6 0v7.21c-1.35-1.05-2.91-1.84-4.76-1.84-4.41 0-8 3.59-8 8.01 0 4.41 3.59 8 8 8 1.85 0 3.41-0.78 4.76-1.84v1.7h3.22v-21.24h-3.22zm226 0v0.99 20.25h3.21v-21.24h-3.21zm22.5 0c-1.04 0-1.95 0.91-1.95 1.96 0 1.04 0.91 1.95 1.95 1.95 1.05 0 1.95-0.91 1.95-1.95 0-1.05-0.9-1.96-1.95-1.96zm43.98 0c-1.04 0-1.95 0.91-1.95 1.96 0 1.04 0.91 1.95 1.95 1.95 1.05 0 1.95-0.91 1.95-1.95 0-1.05-0.9-1.96-1.95-1.96zm62.29 0v7.21c-1.35-1.05-2.92-1.84-4.77-1.84-4.41 0-8 3.59-8 8.01 0 4.41 3.59 8 8 8 1.85 0 3.42-0.79 4.77-1.84v1.7h3.21v-21.24h-3.21zm-389.29 5.37c-1.08 0-2.28 0.29-3.3 0.96s-1.87 1.83-1.87 3.3c0 1.4 0.72 2.53 1.63 3.26 0.91 0.74 2 1.19 3.03 1.6 1.02 0.41 2 0.77 2.62 1.15s0.78 0.6 0.78 0.98c0 0.45-0.19 0.79-0.61 1.1-0.43 0.31-1.08 0.53-1.78 0.53-1.15 0-2.84-0.73-3.87-1.69l-0.7-0.65-2.22 2.22 0.75 0.7c1.53 1.43 3.84 2.5 6.04 2.5 1.37 0 2.72-0.41 3.78-1.2s1.83-2.03 1.83-3.51c0-1.36-0.74-2.44-1.65-3.14s-1.99-1.13-3.01-1.53-1.98-0.78-2.59-1.17c-0.61-0.4-0.81-0.66-0.81-1.15 0-0.35 0.14-0.55 0.5-0.79 0.37-0.23 0.94-0.39 1.45-0.39 1.31 0 2.28 0.5 3.07 1.24l0.7 0.66 2.22-2.22-0.74-0.7c-1.21-1.15-3.02-2.06-5.25-2.06zm62.69 0c-4.41 0-8.01 3.59-8.01 8.01 0 4.41 3.6 8 8.01 8 4.39 0 7.98-3.59 7.98-8 0-4.42-3.59-8.01-7.98-8.01zm30.81 0c-3.54 0-6.42 2.88-6.42 6.41v9.46h3.22v-9.43c0-1.81 1.4-3.2 3.22-3.2 1.79 0 3.17 1.38 3.17 3.2v9.43h3.22v-9.43c0-1.81 1.4-3.2 3.22-3.2 1.78 0 3.16 1.38 3.16 3.2v9.43h3.22v-9.46c0-3.53-2.88-6.41-6.41-6.41-2 0-3.63 1.06-4.79 2.48-1.18-1.42-2.81-2.48-4.81-2.48zm70.12 0c-4.41 0-8.01 3.59-8.01 8.01 0 4.41 3.6 8 8.01 8 1.85 0 3.41-0.78 4.76-1.84v1.7h3.22v-7.86c0-4.42-3.59-8.01-7.98-8.01zm31.13 0c-3.53 0-6.41 2.88-6.41 6.41v9.46h3.21v-9.43c0-1.81 1.41-3.2 3.23-3.2 1.78 0 3.16 1.38 3.16 3.2v9.43h3.22v-9.43c0-1.81 1.4-3.2 3.22-3.2 1.79 0 3.17 1.38 3.17 3.2v9.43h3.21v-9.46c0-3.53-2.88-6.41-6.41-6.41-1.99 0-3.62 1.06-4.79 2.48-1.18-1.42-2.81-2.48-4.81-2.48zm40.78 0c-4.39 0-7.98 3.59-7.98 8.01v13.37h3.22v-7.21c1.35 1.06 2.91 1.84 4.76 1.84 4.41 0 8.01-3.59 8.01-8 0-4.42-3.6-8.01-8.01-8.01zm117.09 0c-4.42 0-8.01 3.59-8.01 8.01 0 4.41 3.59 8 8.01 8 3.07 0 5.77-1.75 7.1-4.33l0.73-1.44h-3.57l-0.29 0.43c-0.87 1.28-2.29 2.1-3.97 2.1-2.34 0-4.14-1.62-4.6-3.78h12.58v-0.98c0-4.42-3.59-8.01-7.98-8.01zm-415.25 0.14l5.7 15.73h2.79l3.05-9.46 3.05 9.46h2.79l5.7-15.73h-3.43l-3.57 9.84-3.16-9.84h-2.76l-3.16 9.84-3.57-9.84h-3.43zm37.95 0v0.99 14.74h3.22v-15.73h-3.22zm306.11 0v0.99 14.74h3.21v-15.73h-3.21zm43.98 0v0.99 14.74h3.21v-15.73h-3.21zm-295.65 3.07c2.67 0 4.76 2.1 4.76 4.8 0 2.66-2.09 4.76-4.76 4.76-2.69 0-4.79-2.1-4.79-4.76 0-2.7 2.1-4.8 4.79-4.8zm322.86 0c1.9 0 3.47 1.11 4.23 2.71h-8.5c0.77-1.6 2.34-2.71 4.27-2.71zm31.9 0c2.67 0 4.77 2.1 4.77 4.8 0 2.66-2.1 4.76-4.77 4.76-2.69 0-4.79-2.1-4.79-4.76 0-2.7 2.1-4.8 4.79-4.8zm-321.83 0.03c2.66 0 4.76 2.1 4.76 4.77 0 2.69-2.1 4.79-4.76 4.79-2.7 0-4.79-2.1-4.79-4.79 0-2.67 2.09-4.77 4.79-4.77zm100.93 0c2.66 0 4.76 2.1 4.76 4.77 0 2.69-2.1 4.79-4.76 4.79-2.7 0-4.79-2.1-4.79-4.79 0-2.67 2.09-4.77 4.79-4.77zm71.91 0c2.7 0 4.79 2.1 4.79 4.77 0 2.69-2.09 4.79-4.79 4.79-2.66 0-4.76-2.1-4.76-4.79 0-2.67 2.1-4.77 4.76-4.77zm-107.2 8.32c-1.2 0-2.23 1.03-2.23 2.22v0.99h0.42c0.19 0.35 0.41 0.59 0.75 0.79l-0.58 1.91h2.86l0.91-3.01 0.01-0.02c0.04-0.19 0.08-0.39 0.08-0.66 0-1.19-1.03-2.22-2.22-2.22zm-311.53 0.07c0.08 0 0.67 0.47 1.89 1.52 0.98 0.83 3.21 2.71 4.95 4.17 1.75 1.45 3.2 2.67 3.22 2.7s0.01 0.12-0.01 0.2c-0.03 0.09-0.09 0.23-0.15 0.33-0.06 0.09-0.19 0.24-0.28 0.33-0.14 0.13-2.49 1.14-11.27 4.79-6.1 2.54-11.11 4.61-11.13 4.59-0.01-0.01-0.01-0.08 0.01-0.16 0.01-0.07 0.09-0.2 0.15-0.28 0.07-0.08 2.85-4.11 6.17-8.95 3.33-4.84 6.11-8.9 6.19-9.02 0.09-0.16 0.17-0.22 0.26-0.22z"
     fill="#ffffff" /></svg>